<?xml version="1.0" encoding="utf-8"?>
<!-- Generator: Adobe Illustrator 22.0.1, SVG Export Plug-In . SVG Version: 6.00 Build 0)  -->
<svg version="1.1" id="Ebene_1" xmlns="http://www.w3.org/2000/svg" xmlns:xlink="http://www.w3.org/1999/xlink" x="0px" y="0px"
	 viewBox="0 0 555 80" style="enable-background:new 0 0 555 80;" xml:space="preserve">
<style type="text/css">
	.st0{clip-path:url(#SVGID_2_);}
	.st1{fill:#C3996B;}
	.st2{fill:#8A5D3B;}
	.st3{opacity:0.85;fill:url(#SVGID_3_);enable-background:new    ;}
</style>
<g>
	<g>
		<g>
			<defs>
				<path id="SVGID_1_" d="M606.8,61.5c0,10.3-18.9,18.5-42.4,18.5H-74.8c-23.5,0-42.4-8.3-42.4-18.5V18.5C-117.2,8.3-98.3,0-74.8,0
					h639.1c23.6,0,42.5,8.3,42.5,18.5V61.5z"/>
			</defs>
			<clipPath id="SVGID_2_">
				<use xlink:href="#SVGID_1_"  style="overflow:visible;"/>
			</clipPath>
			<g class="st0">
				<rect x="-352.1" y="-124.4" class="st1" width="1201.6" height="319.4"/>
				<g>
					<path class="st2" d="M-437,5.3C345.5,4.4,916,0,921.5,0l3.6,0.4c-5.6,0-583.4,4.4-1366.6,5.3L-437,5.3z"/>
					<path class="st2" d="M-442,10.5C218.4,10.1,914,5,921,4.9l3.6,0.4c-6.9,0-705.4,5.1-1366.6,5.6V10.5z"/>
					<path class="st2" d="M-438.6,16.1c11.7,0,1176.7-2.9,1359.9-1.6l0.4,0.4c-182.1-1.3-1352.8,1.6-1364.4,1.6L-438.6,16.1z"/>
					<path class="st2" d="M-438.5,18.5C-59.7,19.4,909.7,24,919.5,24l1.1,0.4c-179.3-0.9-1147.2-5-1357.5-5.5L-438.5,18.5z"/>
					<path class="st2" d="M-438.9,23.2c12,0.1,1194.2,7,1357.7,8.7v0.4C755.8,30.8-432,23.7-444,23.7L-438.9,23.2z"/>
					<path class="st2" d="M882-89.1l1.6,0.6c-5.6,0-577.4-3.6-767.7-2.6c-191.2,1-513.1,0.8-516.4,0.8l0.4-0.4
						c3.3,0,324.7,0.1,515.3-0.8C306.9-92.5,876.5-89.1,882-89.1"/>
					<path class="st2" d="M881.8-93l2,0.6c-6.6,0-653.2-2.2-854.2-1.9C-173.4-94-401-102-403.2-102.1l-0.2-0.6
						c2.2,0.1,233.3,8.3,432.8,7.9C231-95,875.3-93,881.8-93"/>
					<path class="st2" d="M881.2-98.7l-0.2,0.4c-34.1,0-75.6,0.1-119.3,0.1c-123.3,0.1-263.1,0.2-322.1,0.6
						c-79.6,0.6-323-1.3-460.9-2.9c-133.5-1.5-378.2-5.1-380.8-5.1l-1.5-0.7c2.4,0,251.3,3.9,384.6,5.4
						c137.1,1.6,378.9,3.5,457.4,2.8c59.5-0.4,199.8-0.6,323.4-0.7C805.8-98.7,847.2-98.7,881.2-98.7"/>
					<path class="st2" d="M881.5-101.3c-22.4,0.1-547.9,3.2-676.3,1.1c-52.8-0.9-141.3-3.2-234.9-5.7
						c-135.5-3.7-289.2-7.8-371.8-8.3l-5.5-0.6c84.3,0.4,245.8,4.8,382,8.4c93.2,2.5,181.2,4.8,233.3,5.7
						c126.4,2,666.8-1.1,672.3-1.2L881.5-101.3z"/>
					<path class="st2" d="M880.7-116.6c-500.8,6-686.1,10.1-689.2,11.2c-0.2,0.1,1.5,0.2,5.1,0.2c90,2.1,678.5,0.7,684.3,0.7
						l0.2,0.4c-24.4,0.1-596.7,1.5-688.9-0.7c-9.3-0.2-10.6-0.4-9.8-0.7c1.3-0.4,5.5-1.9,353.3-6.8c170.6-2.5,330.5-4.5,332.3-4.5
						L880.7-116.6z"/>
					<path class="st2" d="M881.8-113.3c-98.3,1.3-255.8,4-259.8,5.1c-0.2,0-0.2,0,0.7,0.1c16.9,0.9,163.3,0.3,257.7-0.1l0.7,0.4
						c-24.4,0.1-240,1.3-265.3,0c-2.5-0.1-3.6-0.3-3.1-0.4c6.2-1.8,225.6-5,269-5.7L881.8-113.3z"/>
					<path class="st2" d="M672.2-118.8c11.5-0.1-172.3,2.1-354.2,4.7c-38.8,0.6-73.4,1.1-103.8,1.6c-114.5,1.8-183.7,2.9-267.7,0.8
						c-106.2-2.8-308.1-6.1-348-6.4l-5.6-0.6c45.9,0.2,255.3,3.8,358.4,6.5c80.5,2.1,144.4,1.1,260.4-0.8c30.6-0.4,65.2-1,104.2-1.6
						c181.9-2.6,327.8-4.5,329.4-4.5L672.2-118.8z"/>
					<path class="st2" d="M424-121.1c-13.5,0.1-340.1,4.4-396.4,3.6c-54.8-0.8-425.9-4.8-429.6-4.8l-1.8-0.6
						c3.8,0,379.1,4.1,434.3,4.9c53.7,0.8,367.8-3.4,371.1-3.4L424-121.1z"/>
					<path class="st2" d="M134.1-124l42.1,0.4c-19.8-0.1-536.1-2.3-579.1-3.1l-1.1-0.7C-362.1-126.6,129.4-124,134.1-124"/>
					<path class="st2" d="M936.8,111.5c-758.4,1-1311.2,5.5-1316.7,5.5l-3.5-0.4c5.5,0,565.4-4.5,1324.5-5.5L936.8,111.5z"/>
					<path class="st2" d="M941.7,106.3c-640.2,0.6-1314.3,5.7-1321.1,5.8l-3.5-0.4c6.7,0,683.8-5.3,1324.5-5.8L941.7,106.3z"/>
					<path class="st2" d="M938.3,100.7c-11.5,0-1140.4,3.1-1318,1.8l-0.4-0.4c176.4,1.3,1311.1-1.8,1322.5-1.8L938.3,100.7z"/>
					<path class="st2" d="M938.2,98.2C571.1,97.4-368.5,93-378,93l-1.1-0.4c173.9,0.8,1111.9,4.8,1315.6,5.3L938.2,98.2z"/>
					<path class="st2" d="M938.3,93.5C926.8,93.4-219.1,86.6-377.5,85v-0.4c158.1,1.6,1309.2,8.5,1320.7,8.5L938.3,93.5z"/>
					<path class="st2" d="M906.5-54.4c-785.9,1.3-1358.7,6-1364.4,6l-3.6-0.4c5.6,0,586-4.7,1372.6-6L906.5-54.4z"/>
					<path class="st2" d="M911.5-59.7c-663.4,0.8-1362.1,6.3-1369,6.4l-3.6-0.4c6.9-0.1,708.5-5.6,1372.6-6.5L911.5-59.7L911.5-59.7
						z"/>
					<path class="st2" d="M908.2-65.3c-11.8,0-1181.8,3.6-1365.7,2.2l-0.4-0.4c182.8,1.3,1358.6-2.2,1370.4-2.3L908.2-65.3z"/>
					<path class="st2" d="M908-67.8C527.5-68.5-446.2-72.6-456-72.7l-1.1-0.4c180.3,0.8,1152.3,4.5,1363.5,4.9L908-67.8z"/>
					<path class="st2" d="M908.2-72.6c-12-0.1-1199.4-6.6-1363.7-8.2v-0.4c163.9,1.6,1356.8,8,1368.8,8.2L908.2-72.6z"/>
					<path class="st2" d="M911.5,75.1l1.8,0.6c-5.8,0-593.4-2.5-789.2-1.1c-196.4,1.3-527.3,1.8-530.7,1.8l0.4-0.4
						c3.3,0,333.6-0.4,529.7-1.8C320.1,72.7,905.5,75.1,911.5,75.1"/>
					<path class="st2" d="M911,71.3l2,0.6c-6.7,0-671.4-0.9-878.1-0.2c-208.5,0.8-442.7-6.8-445-6.9l-0.2-0.6
						c2.4,0.1,240,7.8,445.2,7C242.2,70.4,904.2,71.3,911,71.3"/>
					<path class="st2" d="M910.3,65.5l-0.2,0.4c-35.1,0.1-77.6,0.2-122.7,0.3c-126.7,0.3-270.6,0.7-331,1.2
						c-81.8,0.8-332.1-0.7-474-1.9c-137.3-1.2-388.9-4.4-391.3-4.4l-1.5-0.7c2.5,0,258.4,3.4,395.3,4.6
						c140.9,1.2,389.7,2.7,470.3,1.9c61.2-0.6,205.2-0.9,332.3-1.2C832.8,65.7,875.3,65.6,910.3,65.5"/>
					<path class="st2" d="M910.5,62.8c-22.9,0.2-563.2,4.4-695,2.5C161.1,64.5,70.2,62.3-26,60c-139.3-3.4-297.4-7.2-382.4-7.6
						l-5.6-0.6c86.9,0.3,252.9,4.4,393,7.7c95.8,2.3,186.5,4.5,240,5.3c130,1.8,685.2-2.5,690.9-2.5L910.5,62.8z"/>
					<path class="st2" d="M909.3,47.5c-514.6,7-705,11.4-708.1,12.5c-0.2,0.1,1.5,0.2,5.3,0.2c92.5,1.9,697.2-0.7,703.4-0.7l0.2,0.4
						c-24.9,0.1-613.3,2.7-708,0.7c-9.5-0.2-10.7-0.4-10.2-0.7c1.5-0.4,5.6-1.9,362.9-7.5c175.2-2.8,339.6-5.1,341.4-5.1L909.3,47.5
						z"/>
					<path class="st2" d="M910.7,50.9c-101,1.6-262.9,4.5-266.9,5.7c-0.2,0-0.2,0,0.9,0.1c17.3,0.8,167.9,0,264.9-0.7l0.7,0.4
						c-25.1,0.2-246.5,1.8-272.5,0.6c-2.7-0.1-3.8-0.3-3.1-0.4c6.4-1.8,231.6-5.5,276.2-6.3L910.7,50.9z"/>
					<path class="st2" d="M695,45.8c11.8-0.1-177,2.5-363.8,5.4c-39.9,0.7-75.4,1.2-106.7,1.8c-117.6,2-188.8,3.4-275.1,1.2
						c-109.3-2.6-316.8-5.5-357.8-5.6l-5.9-0.6c47.2,0.1,262.4,3.4,368.6,5.8c82.9,1.9,148.4,0.8,267.7-1.3
						c31.3-0.6,66.8-1.1,106.9-1.8c187-3,336.9-5.1,338.5-5.1L695,45.8z"/>
					<path class="st2" d="M439.5,43.9c-13.8,0.2-349.4,5-407.3,4.4c-56.4-0.7-437.8-3.9-441.6-3.9l-1.8-0.6c3.8,0,389.7,3.5,446.5,4
						c55.4,0.7,378-4,381.3-4.1L439.5,43.9z"/>
					<path class="st2" d="M141.9,41.6l43.3,0.3c-20.6-0.1-551-1.2-595.3-2l-1.3-0.7C-368.1,40,136.8,41.6,141.9,41.6"/>
					<path class="st2" d="M950.9,184.6c-23.1,0.2-567.6,4.9-700.7,3.2c-54.8-0.7-146.4-2.8-243.5-5c-140.6-3.2-299.9-6.8-385.7-7.2
						l-5.8-0.6c87.6,0.3,254.9,4.1,396.2,7.4c96.7,2.2,187.9,4.2,242,5c131.1,1.7,690.9-3.1,696.5-3.2L950.9,184.6z"/>
					<path class="st2" d="M949.5,169.3c-518.6,7.6-710.5,12.2-713.6,13.3c-0.2,0.1,1.5,0.2,5.3,0.2c93.2,1.8,703.1-1.5,709.1-1.5
						l0.2,0.4c-25.1,0.1-618.4,3.2-713.8,1.5c-9.5-0.2-10.9-0.4-10.2-0.7c1.5-0.4,5.6-1.9,365.8-7.9c176.6-2.9,342.3-5.5,344.2-5.5
						L949.5,169.3z"/>
					<path class="st2" d="M950.9,172.7c-101.8,1.7-264.9,4.8-269.1,5.9c-0.2,0-0.2,0,0.9,0.1c17.5,0.8,169.3-0.1,266.9-0.9l0.7,0.4
						c-25.3,0.2-248.6,2-274.8,0.9c-2.7-0.1-3.8-0.3-3.3-0.4c6.4-1.8,233.4-5.8,278.4-6.5L950.9,172.7z"/>
					<path class="st2" d="M733.3,167.9c12-0.1-178.5,2.6-366.7,5.8c-40.2,0.7-75.9,1.3-107.4,1.9c-118.5,2.2-190.3,3.5-277.3,1.6
						c-110.2-2.5-319.6-5.1-360.9-5.3l-5.8-0.6c47.5,0.1,264.6,3,371.7,5.4c83.6,1.9,149.7,0.7,269.7-1.6
						c31.7-0.6,67.4-1.2,107.8-1.9c188.5-3.1,339.4-5.5,341.1-5.6L733.3,167.9z"/>
					<path class="st2" d="M476,166.3c-13.8,0.2-352.2,5.4-410.4,4.8c-57-0.6-441.4-3.5-445.4-3.5l-1.8-0.6c3.8,0,393,3,450.1,3.6
						c55.7,0.6,380.9-4.5,384.4-4.5L476,166.3z"/>
					<path class="st2" d="M175.8,164.2l43.7,0.3c-20.6,0-555.6-0.7-600-1.3l-1.3-0.7C-338.5,163.2,170.6,164.2,175.8,164.2"/>
					<path class="st2" d="M-482.9-43.7l-1.8-0.6c6.4,0,636,4.1,845.8,3.2c210.7-0.8,565.4-0.4,569-0.4l-0.5,0.4
						c-3.6,0-357.6-0.4-567.8,0.4C150.8-39.8-476.6-43.7-482.9-43.7"/>
					<path class="st2" d="M-482.5-39.8l-2.2-0.6c7.1,0,719.6,2.8,941.1,2.6c223.6-0.2,474.4,8,476.7,8.2l0.2,0.6
						c-2.5-0.1-256.9-8.5-476.9-8.3C234.4-37.2-475.5-39.8-482.5-39.8"/>
					<path class="st2" d="M-482.1-34.1l0.2-0.4c37.7,0,83.2,0,131.5,0c135.8,0,290.1,0,354.9-0.3c87.8-0.6,356,1.6,507.9,3.2
						c147.1,1.6,416.6,5.4,419.4,5.5l1.6,0.7c-2.7,0-276.8-4-423.5-5.7c-151.1-1.7-417.5-3.7-504-3.2c-65.6,0.4-220.1,0.3-356.4,0.3
						C-399-34.1-444.5-34.1-482.1-34.1"/>
					<path class="st2" d="M-482.5-31.4c24.6-0.1,603.8-2.8,745.3-0.6c58.3,0.9,155.5,3.4,258.6,5.9c149.3,3.7,318.5,7.9,409.5,8.6
						l6.2,0.6c-93-0.7-271-5-420.8-8.8c-102.7-2.6-199.6-5-256.9-5.9c-139.3-2.1-734.7,0.6-740.8,0.7L-482.5-31.4z"/>
					<path class="st2" d="M-481.8-16.1c551.9-5.7,756.2-9.5,759.5-10.6c0.2-0.1-1.6-0.2-5.6-0.2c-99.1-2.2-747.5-1.2-754-1.2
						l-0.2-0.4c26.8,0,657.5-1,759,1.2c10.2,0.2,11.5,0.4,10.9,0.7c-1.5,0.4-6,1.9-389.3,6.5C-289.4-18-465.9-16-467.7-16
						L-481.8-16.1z"/>
					<path class="st2" d="M-483-19.4c108.3-1.3,281.9-3.8,286.4-4.9c0.2,0,0.2,0-0.9-0.1c-18.6-0.9-180.1-0.6-283.9-0.1l-0.9-0.4
						c26.9-0.1,264.4-1.1,292.3,0.2c2.9,0.1,4,0.3,3.5,0.4c-6.9,1.7-248.6,4.9-296.4,5.5v-0.6H-483z"/>
					<path class="st2" d="M-251.9-13.9c-12.7,0.1,189.9-1.9,390.2-4.4c42.8-0.6,80.8-1,114.4-1.6c126.2-1.8,202.5-2.8,295-0.6
						c116.9,2.9,339.4,6.4,383.5,6.6l6.2,0.6c-50.6-0.2-281.2-4-394.8-6.8c-88.7-2.1-159.1-1.2-287,0.6c-33.7,0.4-71.8,1-114.8,1.6
						c-200.5,2.5-361.3,4.2-363.1,4.4L-251.9-13.9z"/>
					<path class="st2" d="M21.6-11.2c14.7-0.1,374.7-4,436.7-3.2c60.5,0.8,469.1,5,473.3,5.1l2,0.6c-4.2,0-417.7-4.5-478.5-5.3
						c-59.3-0.9-405.3,2.9-409,3L21.6-11.2z"/>
					<path class="st2" d="M340.8-8.2l-46.4-0.4c22,0.1,590.5,2.8,637.9,3.6l1.3,0.7C887.3-5.1,346-8,340.8-8.2"/>
					<path class="st2" d="M873.3,151.7c-758.4,1-1311.2,5.5-1316.7,5.5l-3.5-0.4c5.5,0,565.4-4.5,1324.5-5.5L873.3,151.7z"/>
					<path class="st2" d="M878.2,146.5C238,147-436.1,152.2-442.8,152.3l-3.5-0.4c6.7,0,683.8-5.3,1324.5-5.8L878.2,146.5
						L878.2,146.5z"/>
					<path class="st2" d="M875,140.9c-11.5,0-1140.4,3.1-1318,1.8l-0.4-0.4c176.4,1.3,1311.1-1.8,1322.5-1.8L875,140.9z"/>
					<path class="st2" d="M874.8,138.4c-367.1-0.8-1306.7-5.3-1316.2-5.3l-1.1-0.4c173.9,0.8,1111.9,4.8,1315.6,5.3L874.8,138.4z"/>
					<path class="st2" d="M875.2,133.7c-11.5-0.1-1157.4-6.9-1315.8-8.5v-0.4c158.1,1.6,1309.2,8.5,1320.7,8.5L875.2,133.7z"/>
				</g>
				<rect x="-360.8" y="161.3" class="st2" width="1240.8" height="2.5"/>
				<rect x="-360.8" y="119.8" class="st2" width="1240.8" height="2.5"/>
				<rect x="-360.8" y="78.2" class="st2" width="1240.8" height="2.5"/>
				<rect x="-360.8" y="36.8" class="st2" width="1240.8" height="2.5"/>
				<rect x="-360.8" y="-4.8" class="st2" width="1240.8" height="2.5"/>
				<rect x="-360.8" y="-46.3" class="st2" width="1240.8" height="2.5"/>
				<rect x="-360.8" y="-87.8" class="st2" width="1240.8" height="2.5"/>
				
					<linearGradient id="SVGID_3_" gradientUnits="userSpaceOnUse" x1="248.65" y1="396.0838" x2="248.65" y2="76.6424" gradientTransform="matrix(1 0 0 1 0 -201)">
					<stop  offset="0.4" style="stop-color:#8A5D3B"/>
					<stop  offset="0.5394" style="stop-color:#A87C4F;stop-opacity:0"/>
					<stop  offset="0.697" style="stop-color:#8A5D3B"/>
				</linearGradient>
				<rect x="-352.1" y="-124.4" class="st3" width="1201.6" height="319.4"/>
			</g>
		</g>
	</g>
</g>
</svg>
