<?xml version="1.0" encoding="utf-8"?>
<!-- Generator: Adobe Illustrator 22.0.1, SVG Export Plug-In . SVG Version: 6.00 Build 0)  -->
<svg version="1.1" id="Ebene_1" xmlns="http://www.w3.org/2000/svg" xmlns:xlink="http://www.w3.org/1999/xlink" x="0px" y="0px"
	 viewBox="0 0 460.5 70.2" style="enable-background:new 0 0 460.5 70.2;" xml:space="preserve">
<style type="text/css">
	.st0{clip-path:url(#SVGID_2_);}
	.st1{fill:#C3996B;}
	.st2{fill:#8A5D3B;}
	.st3{opacity:0.85;fill:url(#SVGID_3_);enable-background:new    ;}
</style>
<g>
	<g>
		<defs>
			<path id="SVGID_1_" d="M478,54c0,9.2-13,16.6-29.1,16.6H10.1C-6,70.6-19,63.2-19,54V15.6C-19,6.4-6-1,10.1-1h438.8
				C465-1,478,6.4,478,15.6V54z"/>
		</defs>
		<clipPath id="SVGID_2_">
			<use xlink:href="#SVGID_1_"  style="overflow:visible;"/>
		</clipPath>
		<g class="st0">
			<rect x="-180.2" y="-112.3" class="st1" width="824.9" height="285.9"/>
			<g>
				<path class="st2" d="M-238.5,3.7C298.6,2.9,690.3-1,694.1-1l2.5,0.4c-3.9,0-400.5,3.9-938.1,4.7L-238.5,3.7z"/>
				<path class="st2" d="M-242,8.4c453.4-0.4,930.9-4.9,935.6-5l2.5,0.4c-4.7,0-484.2,4.6-938.1,5L-242,8.4z"/>
				<path class="st2" d="M-239.6,13.4c8,0,807.8-2.6,933.5-1.4l0.3,0.4c-125-1.2-928.6,1.4-936.6,1.4L-239.6,13.4z"/>
				<path class="st2" d="M-239.5,15.6c260,0.8,925.5,4.9,932.2,4.9l0.7,0.4C570.4,20.1-94,16.4-238.4,16L-239.5,15.6z"/>
				<path class="st2" d="M-239.7,19.8c8.3,0.1,819.8,6.3,932,7.8V28c-112-1.4-927.4-7.8-935.5-7.8L-239.7,19.8z"/>
				<path class="st2" d="M667-80.7l1.1,0.5c-3.9,0-396.4-3.2-527-2.3c-131.3,0.9-352.2,0.7-354.5,0.7l0.2-0.4
					c2.2,0,222.9,0.1,353.8-0.7C272.1-83.8,663.1-80.7,667-80.7"/>
				<path class="st2" d="M666.8-84.2l1.4,0.5c-4.5,0-448.4-2-586.4-1.7c-139.2,0.3-295.5-6.9-297.1-7l-0.1-0.5
					c1.5,0.1,160.1,7.4,297.1,7.1C220.1-86,662.4-84.2,666.8-84.2"/>
				<path class="st2" d="M666.4-89.3l-0.1,0.4c-23.4,0-51.9,0.1-81.9,0.1c-84.6,0.1-180.6,0.2-221.1,0.5
					c-54.6,0.5-221.8-1.2-316.4-2.6c-91.6-1.3-259.6-4.6-261.4-4.6l-1-0.6c1.6,0,172.5,3.5,264,4.8c94.1,1.4,260.1,3.1,314,2.5
					c40.9-0.4,137.1-0.5,222-0.6C614.6-89.3,643-89.3,666.4-89.3"/>
				<path class="st2" d="M666.6-91.7c-15.4,0.1-376.1,2.9-464.3,1c-36.2-0.8-97-2.9-161.3-5.1c-93-3.3-198.5-7-255.2-7.4l-3.8-0.5
					c57.9,0.4,168.8,4.3,262.2,7.5c64,2.2,124.4,4.3,160.1,5.1c86.7,1.8,457.8-1,461.5-1.1L666.6-91.7z"/>
				<path class="st2" d="M666-105.4c-343.8,5.4-471,9-473.1,10c-0.1,0.1,1,0.2,3.5,0.2c61.8,1.9,465.8,0.6,469.8,0.6l0.1,0.4
					c-16.8,0.1-409.6,1.3-472.9-0.6c-6.4-0.2-7.2-0.4-6.7-0.6c0.9-0.4,3.8-1.7,242.5-6.1c117.1-2.2,226.9-4,228.1-4L666-105.4z"/>
				<path class="st2" d="M666.9-102.4c-67.5,1.2-175.6,3.6-178.4,4.6c-0.1,0-0.1,0,0.5,0.1c11.6,0.8,112.1,0.3,176.9-0.1l0.5,0.4
					c-16.8,0.1-164.7,1.2-182.1,0c-1.8-0.1-2.5-0.3-2.1-0.4c4.2-1.6,154.9-4.5,184.6-5.1L666.9-102.4z"/>
				<path class="st2" d="M522.9-107.3c7.9-0.1-118.2,1.9-243.1,4.2c-26.6,0.5-50.4,1-71.3,1.4c-78.6,1.6-126.1,2.6-183.8,0.7
					c-72.9-2.5-211.5-5.5-238.9-5.7l-3.9-0.5c31.5,0.2,175.2,3.4,246,5.8c55.2,1.9,99.1,1,178.8-0.7c21-0.4,44.8-0.9,71.5-1.4
					c124.9-2.3,225-4,226.1-4L522.9-107.3z"/>
				<path class="st2" d="M352.5-109.4c-9.2,0.1-233.5,3.9-272.1,3.2c-37.6-0.7-292.4-4.3-294.9-4.3l-1.2-0.5
					c2.6,0,260.2,3.7,298.1,4.4c36.9,0.7,252.5-3,254.8-3L352.5-109.4z"/>
				<path class="st2" d="M153.5-112l28.9,0.4c-13.6-0.1-368-2.1-397.5-2.8l-0.8-0.6C-187.1-114.3,150.3-112,153.5-112"/>
				<path class="st2" d="M704.5,98.8c-520.6,0.9-900.1,4.9-903.9,4.9l-2.4-0.4c3.8,0,388.1-4,909.2-4.9L704.5,98.8z"/>
				<path class="st2" d="M707.9,94.1c-439.5,0.5-902.3,5.1-906.9,5.2l-2.4-0.4c4.6,0,469.4-4.7,909.3-5.2L707.9,94.1z"/>
				<path class="st2" d="M705.6,89.1c-7.9,0-782.9,2.8-904.8,1.6l-0.2-0.4c121.1,1.2,900-1.6,907.9-1.6L705.6,89.1z"/>
				<path class="st2" d="M705.5,86.9c-252-0.7-897-4.7-903.5-4.7l-0.8-0.4c119.4,0.7,763.2,4.3,903.1,4.7L705.5,86.9z"/>
				<path class="st2" d="M705.6,82.7c-7.9-0.1-794.5-6.2-903.2-7.6v-0.4c108.5,1.4,898.8,7.6,906.6,7.6L705.6,82.7z"/>
				<path class="st2" d="M683.8-49.7c-539.5,1.2-932.8,5.4-936.6,5.4l-2.5-0.4c3.9,0,402.2-4.2,942.2-5.4L683.8-49.7z"/>
				<path class="st2" d="M687.3-54.4c-455.4,0.7-935,5.6-939.8,5.7l-2.5-0.4c4.8-0.1,486.4-5,942.3-5.8V-54.4z"/>
				<path class="st2" d="M684.9-59.4c-8.1,0-811.2,3.2-937.5,2l-0.2-0.4c125.5,1.2,932.6-2,940.8-2.1L684.9-59.4z"/>
				<path class="st2" d="M684.8-61.7c-261.1-0.6-929.6-4.3-936.3-4.4l-0.8-0.4c123.8,0.7,791,4,936,4.4L684.8-61.7z"/>
				<path class="st2" d="M684.9-66c-8.2-0.1-823.4-5.9-936.1-7.3v-0.4c112.5,1.4,931.4,7.2,939.6,7.3L684.9-66z"/>
				<path class="st2" d="M687.3,66.2l1.2,0.5c-4,0-407.4-2.2-541.8-1c-134.9,1.2-362,1.6-364.4,1.6l0.2-0.4c2.2,0,229-0.4,363.6-1.6
					C281.3,64.1,683.1,66.2,687.3,66.2"/>
				<path class="st2" d="M686.9,62.8l1.4,0.5c-4.6,0-460.9-0.8-602.8-0.2C-57.6,63.8-218.4,57-220,56.9l-0.1-0.5
					c1.6,0.1,164.8,7,305.6,6.3C227.8,62,682.3,62.8,686.9,62.8"/>
				<path class="st2" d="M686.4,57.6l-0.1,0.4c-24.1,0.1-53.2,0.2-84.2,0.3c-87,0.3-185.8,0.6-227.3,1.1
					c-56.1,0.7-228-0.6-325.4-1.7c-94.2-1.1-267-3.9-268.6-3.9l-1-0.6c1.7,0,177.4,3,271.4,4.1c96.8,1.1,267.5,2.4,322.9,1.7
					c42-0.5,140.9-0.8,228.1-1.1C633.1,57.8,662.4,57.7,686.4,57.6"/>
				<path class="st2" d="M686.5,55.2c-15.7,0.2-386.6,3.9-477.1,2.2c-37.4-0.7-99.8-2.6-165.8-4.7c-95.6-3-204.1-6.4-262.5-6.8
					l-3.9-0.5c59.6,0.3,173.6,3.9,269.8,6.9c65.8,2.1,128,4,164.8,4.7c89.2,1.6,470.4-2.2,474.3-2.2L686.5,55.2z"/>
				<path class="st2" d="M685.8,41.5c-353.2,6.3-484,10.2-486.1,11.2c-0.1,0.1,1,0.2,3.6,0.2c63.5,1.7,478.6-0.6,482.9-0.6l0.1,0.4
					c-17.1,0.1-421,2.4-486,0.6c-6.5-0.2-7.4-0.4-7-0.6c1-0.4,3.9-1.7,249.1-6.7c120.2-2.5,233.1-4.6,234.4-4.6L685.8,41.5z"/>
				<path class="st2" d="M686.6,44.6c-69.4,1.4-180.5,4-183.3,5.1c-0.1,0-0.1,0,0.6,0.1c11.9,0.7,115.2,0,181.9-0.6l0.5,0.4
					c-17.2,0.2-169.2,1.6-187.1,0.5c-1.9-0.1-2.6-0.3-2.1-0.4c4.4-1.6,159-4.9,189.6-5.6L686.6,44.6z"/>
				<path class="st2" d="M538.6,40c8.1-0.1-121.5,2.2-249.8,4.8c-27.4,0.6-51.8,1.1-73.2,1.6c-80.8,1.8-129.6,3-188.9,1.1
					c-75-2.3-217.5-4.9-245.6-5l-4-0.5c32.4,0.1,180.1,3,253,5.2C87,48.9,132,47.9,213.9,46c21.5-0.5,45.9-1,73.4-1.6
					c128.4-2.7,231.2-4.6,232.4-4.6L538.6,40z"/>
				<path class="st2" d="M363.3,38.3c-9.5,0.2-239.9,4.5-279.6,3.9c-38.8-0.6-300.5-3.5-303.1-3.5l-1.2-0.5
					c2.6,0,267.5,3.1,306.5,3.6c38,0.6,259.5-3.6,261.8-3.7L363.3,38.3z"/>
				<path class="st2" d="M158.9,36.2l29.8,0.3c-14.1-0.1-378.2-1.1-408.6-1.8l-0.9-0.6C-191.2,34.8,155.4,36.2,158.9,36.2"/>
				<path class="st2" d="M714.3,164.2c-15.9,0.2-389.6,4.4-481,2.9c-37.6-0.6-100.5-2.5-167.1-4.5c-96.5-2.9-205.9-6.1-264.8-6.4
					l-4-0.5c60.1,0.3,175,3.7,272,6.6c66.4,2,129,3.8,166.1,4.5c90,1.5,474.3-2.8,478.1-2.9L714.3,164.2z"/>
				<path class="st2" d="M713.3,150.5c-356,6.8-487.8,10.9-489.9,11.9c-0.1,0.1,1,0.2,3.6,0.2c64,1.6,482.6-1.3,486.8-1.3l0.1,0.4
					c-17.2,0.1-424.5,2.9-490,1.3c-6.5-0.2-7.5-0.4-7-0.6c1-0.4,3.9-1.7,251.1-7.1c121.2-2.6,235-4.9,236.2-4.9L713.3,150.5z"/>
				<path class="st2" d="M714.3,153.6c-69.9,1.5-181.9,4.3-184.8,5.3c-0.1,0-0.1,0,0.6,0.1c12,0.7,116.3-0.1,183.3-0.8l0.5,0.4
					c-17.4,0.2-170.6,1.8-188.6,0.8c-1.9-0.1-2.6-0.3-2.2-0.4c4.4-1.6,160.2-5.2,191.1-5.8L714.3,153.6z"/>
				<path class="st2" d="M564.9,149.3c8.2-0.1-122.5,2.3-251.8,5.2c-27.6,0.6-52.1,1.2-73.8,1.7c-81.4,2-130.6,3.1-190.4,1.4
					c-75.6-2.2-219.4-4.6-247.8-4.7l-4-0.5c32.6,0.1,181.6,2.7,255.1,4.8c57.4,1.7,102.8,0.6,185.1-1.4c21.8-0.5,46.2-1.1,74-1.7
					c129.4-2.8,233-4.9,234.1-5L564.9,149.3z"/>
				<path class="st2" d="M388.3,147.8c-9.5,0.2-241.8,4.8-281.8,4.3c-39.1-0.5-303-3.1-305.8-3.1l-1.2-0.5c2.6,0,269.8,2.7,309,3.2
					c38.3,0.5,261.5-4,263.9-4L388.3,147.8z"/>
				<path class="st2" d="M182.1,146l30,0.3c-14.1,0-381.4-0.6-411.9-1.2l-0.9-0.6C-170.9,145.1,178.6,146,182.1,146"/>
				<path class="st2" d="M-270-40.1l-1.2-0.5c4.4,0,436.6,3.7,580.6,2.9C454-38.4,697.5-38.1,700-38.1l-0.4,0.4
					c-2.5,0-245.5-0.4-389.8,0.4C165-36.6-265.7-40.1-270-40.1"/>
				<path class="st2" d="M-269.7-36.6l-1.5-0.5c4.9,0,494,2.5,646,2.3C528.3-35,700.4-27.6,702-27.5l0.1,0.5
					c-1.8-0.1-176.4-7.6-327.4-7.4C222.4-34.3-264.9-36.6-269.7-36.6"/>
				<path class="st2" d="M-269.5-31.5l0.1-0.4c25.9,0,57.1,0,90.2,0c93.2,0,199.1,0,243.6-0.3c60.2-0.5,244.4,1.4,348.6,2.9
					c101,1.4,286,4.8,287.9,4.9l1.1,0.6c-1.9,0-190-3.6-290.8-5.1c-103.8-1.5-286.6-3.3-346-2.9c-45,0.4-151.1,0.3-244.6,0.3
					C-212.4-31.5-243.6-31.5-269.5-31.5"/>
				<path class="st2" d="M-269.7-29.1c16.9-0.1,414.5-2.5,511.6-0.5c40,0.8,106.8,3,177.5,5.3C521.9-21,638-17.2,700.5-16.6l4.3,0.5
					c-63.9-0.6-186-4.5-288.9-7.9c-70.5-2.3-137-4.5-176.4-5.3c-95.6-1.9-504.4,0.5-508.5,0.6L-269.7-29.1z"/>
				<path class="st2" d="M-269.2-15.4c378.9-5.1,519.1-8.5,521.4-9.5c0.1-0.1-1.1-0.2-3.9-0.2c-68-2-513.1-1.1-517.6-1.1l-0.1-0.4
					c18.4,0,451.4-0.9,521,1.1c7,0.2,7.9,0.4,7.5,0.6c-1,0.4-4.1,1.7-267.2,5.8c-129,2-250.1,3.8-251.4,3.8L-269.2-15.4z"/>
				<path class="st2" d="M-270.1-18.4c74.4-1.2,193.5-3.4,196.6-4.4c0.1,0,0.1,0-0.6-0.1C-86.9-23.7-197.7-23.4-269-23l-0.6-0.4
					c18.5-0.1,181.5-1,200.6,0.2c2,0.1,2.8,0.3,2.4,0.4c-4.8,1.5-170.6,4.4-203.5,4.9V-18.4z"/>
				<path class="st2" d="M-111.5-13.4c-8.8,0.1,130.4-1.7,267.9-3.9c29.4-0.5,55.5-0.9,78.5-1.4c86.6-1.6,139-2.5,202.5-0.5
					c80.2,2.6,233,5.7,263.2,5.9l4.2,0.5c-34.7-0.2-193-3.6-271-6.1c-60.9-1.9-109.2-1.1-197,0.5c-23.1,0.4-49.2,0.9-78.8,1.4
					c-137.6,2.2-248,3.8-249.3,3.9L-111.5-13.4z"/>
				<path class="st2" d="M76.3-11c10.1-0.1,257.2-3.6,299.8-2.9c41.5,0.7,322,4.5,324.9,4.6l1.4,0.5c-2.9,0-286.7-4-328.5-4.7
					c-40.6-0.8-278.1,2.6-280.6,2.7L76.3-11z"/>
				<path class="st2" d="M295.4-8.3l-31.9-0.4c15.1,0.1,405.4,2.5,437.9,3.2l0.9,0.6C670.6-5.6,299-8.2,295.4-8.3"/>
				<path class="st2" d="M661,134.8c-520.6,0.9-900.1,4.9-903.9,4.9l-2.4-0.4c3.8,0,388.1-4,909.3-4.9L661,134.8z"/>
				<path class="st2" d="M664.4,130.1c-439.5,0.5-902.2,5.1-906.9,5.2l-2.4-0.4c4.6,0,469.4-4.7,909.2-5.2V130.1z"/>
				<path class="st2" d="M662.1,125.1c-7.9,0-782.9,2.8-904.8,1.6l-0.2-0.4c121.1,1.2,900-1.6,907.9-1.6L662.1,125.1z"/>
				<path class="st2" d="M662,122.9c-252-0.7-897-4.7-903.5-4.7l-0.8-0.4c119.4,0.7,763.2,4.3,903.1,4.7L662,122.9z"/>
				<path class="st2" d="M662.3,118.7c-7.9-0.1-794.5-6.2-903.2-7.6v-0.4c108.5,1.4,898.8,7.6,906.6,7.6L662.3,118.7z"/>
			</g>
			<rect x="-186.1" y="143.4" class="st2" width="851.8" height="2.2"/>
			<rect x="-186.1" y="106.2" class="st2" width="851.8" height="2.2"/>
			<rect x="-186.1" y="69" class="st2" width="851.8" height="2.2"/>
			<rect x="-186.1" y="31.9" class="st2" width="851.8" height="2.2"/>
			<rect x="-186.1" y="-5.3" class="st2" width="851.8" height="2.2"/>
			<rect x="-186.1" y="-42.4" class="st2" width="851.8" height="2.2"/>
			<rect x="-186.1" y="-79.6" class="st2" width="851.8" height="2.2"/>
			
				<linearGradient id="SVGID_3_" gradientUnits="userSpaceOnUse" x1="232.1915" y1="-161.6" x2="232.1915" y2="124.3" gradientTransform="matrix(1 0 0 -1 0 12)">
				<stop  offset="0.4" style="stop-color:#8A5D3B"/>
				<stop  offset="0.5394" style="stop-color:#A87C4F;stop-opacity:0"/>
				<stop  offset="0.697" style="stop-color:#8A5D3B"/>
			</linearGradient>
			<rect x="-180.2" y="-112.3" class="st3" width="824.9" height="285.9"/>
		</g>
	</g>
</g>
</svg>
