<?xml version="1.0" encoding="utf-8"?>
<!-- Generator: Adobe Illustrator 22.0.1, SVG Export Plug-In . SVG Version: 6.00 Build 0)  -->
<svg version="1.1" id="Ebene_1" xmlns="http://www.w3.org/2000/svg" xmlns:xlink="http://www.w3.org/1999/xlink" x="0px" y="0px"
	 viewBox="0 0 461 226" style="enable-background:new 0 0 461 226;" xml:space="preserve">
<style type="text/css">
	.st0{fill:#A6A8AB;}
	.st1{fill:#929497;}
	.st2{clip-path:url(#SVGID_2_);}
	.st3{fill:#C3996B;}
	.st4{fill:#8A5D3B;}
	.st5{opacity:0.85;fill:url(#SVGID_3_);enable-background:new    ;}
	.st6{clip-path:url(#SVGID_5_);}
	.st7{fill:url(#SVGID_6_);}
	.st8{fill:#442818;}
	.st9{clip-path:url(#SVGID_9_);}
	.st10{opacity:0.85;fill:url(#SVGID_10_);enable-background:new    ;}
	.st11{fill:#472919;}
	.st12{fill:url(#SVGID_11_);}
	.st13{fill:#404041;}
	.st14{fill:url(#SVGID_12_);}
	.st15{fill:url(#SVGID_13_);}
	.st16{fill:url(#SVGID_14_);}
	.st17{fill:url(#SVGID_15_);}
	.st18{fill:url(#SVGID_16_);}
	.st19{opacity:0.5;}
	.st20{fill:#C1B49A;}
	.st21{fill:#CF571C;}
	.st22{fill:#FFFFFF;}
	.st23{fill:#F47722;}
	.st24{fill:#F9A61D;}
	.st25{fill:#FFCE38;}
	.st26{opacity:0.3;}
</style>
<g>
	<path class="st0" d="M447,152.8c0,5.7-7.8,10.3-17.4,10.3H167.1c-9.6,0-17.4-4.6-17.4-10.3V129c0-5.7,7.8-10.3,17.4-10.3h262.5
		c9.6,0,17.4,4.6,17.4,10.3V152.8z"/>
	<path class="st1" d="M447,127.6L447,127.6V58.4c0-2.5-2.7-4.5-6-4.5s-6,2-6,4.5v88c0,2.5,2.7,4.5,6,4.5c0.2,0,0.4,0,0.7,0
		c0.2,0,0.5,0,0.7,0h4.6c3.8,0,6.9-2.3,6.9-5v-13.1C453.9,129.8,450.8,127.6,447,127.6z"/>
	<g>
		<path class="st1" d="M460.8,49.7c0,7.8-8.9,14.1-19.8,14.1s-19.8-6.3-19.8-14.1s8.9-14.1,19.8-14.1
			C451.9,35.6,460.8,41.9,460.8,49.7z"/>
		<path class="st0" d="M429.4,52.4c0-6.3,7.2-11.4,16-11.4c7.3,0,13.4,3.4,15.4,8.1c-0.4-7.5-9.1-13.5-19.8-13.5
			c-10.9,0-19.8,6.3-19.8,14.1s8.9,14.1,19.8,14.1c0.8,0,1.6,0,2.3-0.1C435.5,63,429.4,58.2,429.4,52.4z"/>
	</g>
	<g>
		<g>
			<defs>
				<path id="SVGID_1_" d="M429.4,160.5c0,9.2-10.4,16.6-23.3,16.6h-351c-12.9,0-23.3-7.4-23.3-16.6v-38.4
					c0-9.2,10.4-16.6,23.3-16.6h351c12.9,0,23.3,7.4,23.3,16.6V160.5z"/>
			</defs>
			<clipPath id="SVGID_2_">
				<use xlink:href="#SVGID_1_"  style="overflow:visible;"/>
			</clipPath>
			<g class="st2">
				<rect x="-97.2" y="-5.8" class="st3" width="659.9" height="285.9"/>
				<g>
					<path class="st4" d="M-143.8,110.2c429.7-0.8,743-4.7,746.1-4.7l2,0.4c-3.1,0-320.4,3.9-750.5,4.7L-143.8,110.2z"/>
					<path class="st4" d="M-146.6,114.9c362.7-0.4,744.7-4.9,748.5-5l2,0.4c-3.8,0-387.4,4.6-750.5,5L-146.6,114.9z"/>
					<path class="st4" d="M-144.7,119.9c6.4,0,646.2-2.6,746.8-1.4l0.2,0.4c-100-1.2-742.9,1.4-749.3,1.4L-144.7,119.9z"/>
					<path class="st4" d="M-144.6,122.1c208,0.8,740.4,4.9,745.8,4.9l0.6,0.4c-98.5-0.8-630-4.5-745.5-4.9L-144.6,122.1z"/>
					<path class="st4" d="M-144.8,126.3c6.6,0.1,655.8,6.3,745.6,7.8v0.4c-89.6-1.4-741.9-7.8-748.4-7.8L-144.8,126.3z"/>
					<path class="st4" d="M580.6,25.8l0.9,0.5c-3.1,0-317.1-3.2-421.6-2.3c-105,0.9-281.8,0.7-283.6,0.7l0.2-0.4
						c1.8,0,178.3,0.1,283-0.7C264.7,22.7,577.5,25.8,580.6,25.8"/>
					<path class="st4" d="M580.4,22.3l1.1,0.5c-3.6,0-358.7-2-469.1-1.7C1,21.4-124,14.2-125.3,14.1l-0.1-0.5
						c1.2,0.1,128.1,7.4,237.7,7.1C223.1,20.5,576.9,22.3,580.4,22.3"/>
					<path class="st4" d="M580.1,17.2l-0.1,0.4c-18.7,0-41.5,0.1-65.5,0.1c-67.7,0.1-144.5,0.2-176.9,0.5
						c-43.7,0.5-177.4-1.2-253.1-2.6C11.2,14.3-123.2,11-124.6,11l-0.8-0.6c1.3,0,138,3.5,211.2,4.8c75.3,1.4,208.1,3.1,251.2,2.5
						c32.7-0.4,109.7-0.5,177.6-0.6C538.7,17.2,561.4,17.2,580.1,17.2"/>
					<path class="st4" d="M580.3,14.8c-12.3,0.1-300.9,2.9-371.4,1c-29-0.8-77.6-2.9-129-5.1C5.5,7.4-78.9,3.7-124.3,3.3l-3-0.5
						C-81,3.2,7.7,7.1,82.5,10.3c51.2,2.2,99.5,4.3,128.1,5.1c69.4,1.8,366.2-1,369.2-1.1L580.3,14.8z"/>
					<path class="st4" d="M579.8,1.1c-275,5.4-376.8,9-378.5,10c-0.1,0.1,0.8,0.2,2.8,0.2c49.4,1.9,372.6,0.6,375.8,0.6l0.1,0.4
						c-13.4,0.1-327.7,1.3-378.3-0.6c-5.1-0.2-5.8-0.4-5.4-0.6c0.7-0.4,3-1.7,194-6.1C484,2.8,571.8,1,572.8,1L579.8,1.1z"/>
					<path class="st4" d="M580.5,4.1c-54,1.2-140.5,3.6-142.7,4.6c-0.1,0-0.1,0,0.4,0.1c9.3,0.8,89.7,0.3,141.5-0.1l0.4,0.4
						c-13.4,0.1-131.8,1.2-145.7,0c-1.4-0.1-2-0.3-1.7-0.4c3.4-1.6,123.9-4.5,147.7-5.1L580.5,4.1z"/>
					<path class="st4" d="M465.3-0.8c6.3-0.1-94.6,1.9-194.5,4.2c-21.3,0.5-40.3,1-57,1.4c-62.9,1.6-100.9,2.6-147,0.7
						C8.5,3-102.4,0-124.3-0.2l-3.1-0.5c25.2,0.2,140.2,3.4,196.8,5.8c44.2,1.9,79.3,1,143-0.7C229.2,4,248.2,3.5,269.6,3
						c99.9-2.3,180-4,180.9-4L465.3-0.8z"/>
					<path class="st4" d="M329-2.9C321.6-2.8,142.2,1,111.3,0.3C81.2-0.4-122.6-4-124.6-4l-1-0.5c2.1,0,208.2,3.7,238.5,4.4
						c29.5,0.7,202-3,203.8-3L329-2.9z"/>
					<path class="st4" d="M169.8-5.5l23.1,0.4c-10.9-0.1-294.4-2.1-318-2.8l-0.6-0.6C-102.7-7.8,167.2-5.5,169.8-5.5"/>
					<path class="st4" d="M610.6,205.3c-416.5,0.9-720.1,4.9-723.1,4.9l-1.9-0.4c3,0,310.5-4,727.4-4.9L610.6,205.3z"/>
					<path class="st4" d="M613.3,200.6c-351.6,0.5-721.8,5.1-725.5,5.2l-1.9-0.4c3.7,0,375.5-4.7,727.4-5.2L613.3,200.6z"/>
					<path class="st4" d="M611.5,195.6c-6.3,0-626.3,2.8-723.8,1.6l-0.2-0.4c96.9,1.2,720-1.6,726.3-1.6L611.5,195.6z"/>
					<path class="st4" d="M611.4,193.4c-201.6-0.7-717.6-4.7-722.8-4.7l-0.6-0.4c95.5,0.7,610.6,4.3,722.5,4.7L611.4,193.4z"/>
					<path class="st4" d="M611.5,189.2c-6.3-0.1-635.6-6.2-722.6-7.6v-0.4c86.8,1.4,719,7.6,725.3,7.6L611.5,189.2z"/>
					<path class="st4" d="M594,56.8c-431.6,1.2-746.2,5.4-749.3,5.4l-2-0.4c3.1,0,321.8-4.2,753.8-5.4L594,56.8z"/>
					<path class="st4" d="M596.8,52.1c-364.3,0.7-748,5.6-751.8,5.7l-2-0.4c3.8-0.1,389.1-5,753.8-5.8V52.1z"/>
					<path class="st4" d="M594.9,47.1c-6.5,0-649,3.2-750,2l-0.2-0.4c100.4,1.2,746.1-2,752.6-2.1L594.9,47.1z"/>
					<path class="st4" d="M594.8,44.8c-208.9-0.6-743.7-4.3-749-4.4l-0.6-0.4c99,0.7,632.8,4,748.8,4.4L594.8,44.8z"/>
					<path class="st4" d="M594.9,40.5c-6.6-0.1-658.7-5.9-748.9-7.3v-0.4c90,1.4,745.1,7.2,751.7,7.3L594.9,40.5z"/>
					<path class="st4" d="M596.8,172.7l1,0.5c-3.2,0-325.9-2.2-433.4-1c-107.9,1.2-289.6,1.6-291.5,1.6l0.2-0.4
						c1.8,0,183.2-0.4,290.9-1.6C272,170.6,593.5,172.7,596.8,172.7"/>
					<path class="st4" d="M596.5,169.3l1.1,0.5c-3.7,0-368.7-0.8-482.2-0.2c-114.5,0.7-243.1-6.1-244.4-6.2l-0.1-0.5
						c1.3,0.1,131.8,7,244.5,6.3C229.2,168.5,592.8,169.3,596.5,169.3"/>
					<path class="st4" d="M596.1,164.1l-0.1,0.4c-19.3,0.1-42.6,0.2-67.4,0.3c-69.6,0.3-148.6,0.6-181.8,1.1
						c-44.9,0.7-182.4-0.6-260.3-1.7c-75.4-1.1-213.6-3.9-214.9-3.9l-0.8-0.6c1.4,0,141.9,3,217.1,4.1c77.4,1.1,214,2.4,258.3,1.7
						c33.6-0.5,112.7-0.8,182.5-1.1C553.5,164.3,576.9,164.2,596.1,164.1"/>
					<path class="st4" d="M596.2,161.7c-12.6,0.2-309.3,3.9-381.7,2.2c-29.9-0.7-79.8-2.6-132.6-4.7c-76.5-3-163.3-6.4-210-6.8
						l-3.1-0.5c47.7,0.3,138.9,3.9,215.8,6.9c52.6,2.1,102.4,4,131.8,4.7c71.4,1.6,376.3-2.2,379.4-2.2L596.2,161.7z"/>
					<path class="st4" d="M595.6,148c-282.6,6.3-387.2,10.2-388.9,11.2c-0.1,0.1,0.8,0.2,2.9,0.2c50.8,1.7,382.9-0.6,386.3-0.6
						l0.1,0.4c-13.7,0.1-336.8,2.4-388.8,0.6c-5.2-0.2-5.9-0.4-5.6-0.6c0.8-0.4,3.1-1.7,199.3-6.7c96.2-2.5,186.5-4.6,187.5-4.6
						L595.6,148z"/>
					<path class="st4" d="M596.3,151.1c-55.5,1.4-144.4,4-146.6,5.1c-0.1,0-0.1,0,0.5,0.1c9.5,0.7,92.2,0,145.5-0.6l0.4,0.4
						c-13.8,0.2-135.4,1.6-149.7,0.5c-1.5-0.1-2.1-0.3-1.7-0.4c3.5-1.6,127.2-4.9,151.7-5.6L596.3,151.1z"/>
					<path class="st4" d="M477.9,146.5c6.5-0.1-97.2,2.2-199.8,4.8c-21.9,0.6-41.4,1.1-58.6,1.6c-64.6,1.8-103.7,3-151.1,1.1
						c-60-2.3-174-4.9-196.5-5l-3.2-0.5c25.9,0.1,144.1,3,202.4,5.2c45.5,1.7,81.5,0.7,147-1.2c17.2-0.5,36.7-1,58.7-1.6
						c102.7-2.7,185-4.6,185.9-4.6L477.9,146.5z"/>
					<path class="st4" d="M337.6,144.8c-7.6,0.2-191.9,4.5-223.7,3.9c-31-0.6-240.4-3.5-242.5-3.5l-1-0.5c2.1,0,214,3.1,245.2,3.6
						c30.4,0.6,207.6-3.6,209.4-3.7L337.6,144.8z"/>
					<path class="st4" d="M174.1,142.7l23.8,0.3c-11.3-0.1-302.6-1.1-326.9-1.8l-0.7-0.6C-106,141.3,171.3,142.7,174.1,142.7"/>
					<path class="st4" d="M618.4,270.7c-12.7,0.2-311.7,4.4-384.8,2.9c-30.1-0.6-80.4-2.5-133.7-4.5c-77.2-2.9-164.7-6.1-211.8-6.4
						l-3.2-0.5c48.1,0.3,140,3.7,217.6,6.6c53.1,2,103.2,3.8,132.9,4.5c72,1.5,379.4-2.8,382.5-2.9L618.4,270.7z"/>
					<path class="st4" d="M617.6,257c-284.8,6.8-390.2,10.9-391.9,11.9c-0.1,0.1,0.8,0.2,2.9,0.2c51.2,1.6,386.1-1.3,389.4-1.3
						l0.1,0.4c-13.8,0.1-339.6,2.9-392,1.3c-5.2-0.2-6-0.4-5.6-0.6c0.8-0.4,3.1-1.7,200.9-7.1c97-2.6,188-4.9,189-4.9L617.6,257z"/>
					<path class="st4" d="M618.4,260.1c-55.9,1.5-145.5,4.3-147.8,5.3c-0.1,0-0.1,0,0.5,0.1c9.6,0.7,93-0.1,146.6-0.8l0.4,0.4
						c-13.9,0.2-136.5,1.8-150.9,0.8c-1.5-0.1-2.1-0.3-1.8-0.4c3.5-1.6,128.2-5.2,152.9-5.8L618.4,260.1z"/>
					<path class="st4" d="M498.9,255.8c6.6-0.1-98,2.3-201.4,5.2c-22.1,0.6-41.7,1.2-59,1.7c-65.1,2-104.5,3.1-152.3,1.4
						c-60.5-2.2-175.5-4.6-198.2-4.7l-3.2-0.5c26.1,0.1,145.3,2.7,204.1,4.8c45.9,1.7,82.2,0.6,148.1-1.4c17.4-0.5,37-1.1,59.2-1.7
						c103.5-2.8,186.4-4.9,187.3-5L498.9,255.8z"/>
					<path class="st4" d="M357.6,254.3c-7.6,0.2-193.4,4.8-225.4,4.3c-31.3-0.5-242.4-3.1-244.6-3.1l-1-0.5
						c2.1,0,215.8,2.7,247.2,3.2c30.6,0.5,209.2-4,211.1-4L357.6,254.3z"/>
					<path class="st4" d="M192.7,252.5l24,0.3c-11.3,0-305.1-0.6-329.5-1.2l-0.7-0.6C-89.7,251.6,189.9,252.5,192.7,252.5"/>
					<path class="st4" d="M-169,66.4l-1-0.5c3.5,0,349.3,3.7,464.5,2.9C410.2,68.1,605,68.4,607,68.4l-0.3,0.4
						c-2,0-196.4-0.4-311.8,0.4C179,69.9-165.6,66.4-169,66.4"/>
					<path class="st4" d="M-168.8,69.9l-1.2-0.5c3.9,0,395.2,2.5,516.8,2.3c122.8-0.2,260.5,7.2,261.8,7.3l0.1,0.5
						c-1.4-0.1-141.1-7.6-261.9-7.4C224.9,72.2-164.9,69.9-168.8,69.9"/>
					<path class="st4" d="M-168.6,75l0.1-0.4c20.7,0,45.7,0,72.2,0c74.6,0,159.3,0,194.9-0.3c48.2-0.5,195.5,1.4,278.9,2.9
						c80.8,1.4,228.8,4.8,230.3,4.9l0.9,0.6c-1.5,0-152-3.6-232.6-5.1c-83-1.5-229.3-3.3-276.8-2.9C63.3,75.1-21.6,75-96.4,75
						C-122.9,75-147.9,75-168.6,75"/>
					<path class="st4" d="M-168.8,77.4c13.5-0.1,331.6-2.5,409.3-0.5c32,0.8,85.4,3,142,5.3c82,3.3,174.9,7.1,224.9,7.7l3.4,0.5
						c-51.1-0.6-148.8-4.5-231.1-7.9c-56.4-2.3-109.6-4.5-141.1-5.3c-76.5-1.9-403.5,0.5-406.8,0.6L-168.8,77.4z"/>
					<path class="st4" d="M-168.4,91.1c303.1-5.1,415.3-8.5,417.1-9.5c0.1-0.1-0.9-0.2-3.1-0.2c-54.4-2-410.5-1.1-414.1-1.1
						l-0.1-0.4c14.7,0,361.1-0.9,416.8,1.1c5.6,0.2,6.3,0.4,6,0.6c-0.8,0.4-3.3,1.7-213.8,5.8c-103.2,2-200.1,3.8-201.1,3.8
						L-168.4,91.1z"/>
					<path class="st4" d="M-169.1,88.1c59.5-1.2,154.8-3.4,157.3-4.4c0.1,0,0.1,0-0.5-0.1c-10.2-0.8-98.9-0.5-155.9-0.1l-0.5-0.4
						c14.8-0.1,145.2-1,160.5,0.2c1.6,0.1,2.2,0.3,1.9,0.4c-3.8,1.5-136.5,4.4-162.8,4.9V88.1z"/>
					<path class="st4" d="M-42.2,93.1c-7,0.1,104.3-1.7,214.3-3.9c23.5-0.5,44.4-0.9,62.8-1.4c69.3-1.6,111.2-2.5,162-0.5
						c64.2,2.6,186.4,5.7,210.6,5.9l3.4,0.5c-27.8-0.2-154.4-3.6-216.8-6.1c-48.7-1.9-87.4-1.1-157.6,0.5c-18.5,0.4-39.4,0.9-63,1.4
						C63.4,91.7-24.9,93.3-25.9,93.4L-42.2,93.1z"/>
					<path class="st4" d="M108,95.5c8.1-0.1,205.8-3.6,239.8-2.9c33.2,0.7,257.6,4.5,259.9,4.6l1.1,0.5c-2.3,0-229.4-4-262.8-4.7
						c-32.5-0.8-222.5,2.6-224.5,2.7L108,95.5z"/>
					<path class="st4" d="M283.3,98.2l-25.5-0.4c12.1,0.1,324.3,2.5,350.3,3.2l0.7,0.6C583.5,100.9,286.2,98.3,283.3,98.2"/>
					<path class="st4" d="M575.8,241.3c-416.5,0.9-720.1,4.9-723.1,4.9l-1.9-0.4c3,0,310.5-4,727.4-4.9L575.8,241.3z"/>
					<path class="st4" d="M578.5,236.6c-351.6,0.5-721.8,5.1-725.5,5.2l-1.9-0.4c3.7,0,375.5-4.7,727.4-5.2V236.6z"/>
					<path class="st4" d="M576.7,231.6c-6.3,0-626.3,2.8-723.8,1.6l-0.2-0.4c96.9,1.2,720-1.6,726.3-1.6L576.7,231.6z"/>
					<path class="st4" d="M576.6,229.4c-201.6-0.7-717.6-4.7-722.8-4.7l-0.6-0.4c95.5,0.7,610.6,4.3,722.5,4.7L576.6,229.4z"/>
					<path class="st4" d="M576.8,225.2c-6.3-0.1-635.6-6.2-722.6-7.6v-0.4c86.8,1.4,719,7.6,725.3,7.6L576.8,225.2z"/>
				</g>
				<rect x="-101.9" y="249.9" class="st4" width="681.4" height="2.2"/>
				<rect x="-101.9" y="212.7" class="st4" width="681.4" height="2.2"/>
				<rect x="-101.9" y="175.5" class="st4" width="681.4" height="2.2"/>
				<rect x="-101.9" y="138.4" class="st4" width="681.4" height="2.2"/>
				<rect x="-101.9" y="101.2" class="st4" width="681.4" height="2.2"/>
				<rect x="-101.9" y="64.1" class="st4" width="681.4" height="2.2"/>
				<rect x="-101.9" y="26.9" class="st4" width="681.4" height="2.2"/>
				
					<linearGradient id="SVGID_3_" gradientUnits="userSpaceOnUse" x1="232.752" y1="-55.1" x2="232.752" y2="230.8" gradientTransform="matrix(1 0 0 -1 0 225)">
					<stop  offset="0.4" style="stop-color:#8A5D3B"/>
					<stop  offset="0.5394" style="stop-color:#A87C4F;stop-opacity:0"/>
					<stop  offset="0.697" style="stop-color:#8A5D3B"/>
				</linearGradient>
				<rect x="-97.2" y="-5.8" class="st5" width="659.9" height="285.9"/>
			</g>
		</g>
	</g>
	<path class="st4" d="M354.8,208.6c0,9.2-10.4,16.6-23.3,16.6H129.7c-12.9,0-23.3-7.4-23.3-16.6V72.7c0-9.2,10.4-16.6,23.3-16.6
		h201.9c12.9,0,23.3,7.4,23.3,16.6L354.8,208.6L354.8,208.6z"/>
	<g>
		<g>
			<defs>
				<path id="SVGID_4_" d="M354.8,208.6c0,9.2-10.4,16.6-23.3,16.6H129.7c-12.9,0-23.3-7.4-23.3-16.6V72.7
					c0-9.2,10.4-16.6,23.3-16.6h201.9c12.9,0,23.3,7.4,23.3,16.6L354.8,208.6L354.8,208.6z"/>
			</defs>
			<clipPath id="SVGID_5_">
				<use xlink:href="#SVGID_4_"  style="overflow:visible;"/>
			</clipPath>
			<g class="st6">
				<rect x="-96.2" y="23.8" class="st3" width="659.9" height="234.7"/>
				<g>
					<path class="st4" d="M-142.9,119.1c429.7-0.6,743-3.8,746.1-3.9l2,0.3c-3.1,0-320.4,3.2-750.5,3.8L-142.9,119.1z"/>
					<path class="st4" d="M-145.6,122.9c362.7-0.3,744.7-4,748.5-4.1l2,0.3c-3.8,0-387.4,3.8-750.5,4.1L-145.6,122.9z"/>
					<path class="st4" d="M-143.8,127c6.4,0,646.2-2.2,746.8-1.1l0.2,0.3c-100-1-742.9,1.1-749.3,1.1L-143.8,127z"/>
					<path class="st4" d="M-143.7,128.8c208,0.6,740.4,4,745.8,4.1l0.6,0.3c-98.5-0.6-630-3.7-745.5-4.1L-143.7,128.8z"/>
					<path class="st4" d="M-143.8,132.3c6.6,0.1,655.8,5.2,745.6,6.4v0.3c-89.6-1.2-741.9-6.4-748.4-6.4L-143.8,132.3z"/>
					<path class="st4" d="M581.6,49.7l0.9,0.4c-3.1,0-317.1-2.6-421.6-1.9c-105,0.7-281.8,0.6-283.6,0.6l0.2-0.3
						c1.8,0,178.3,0.1,283-0.6C265.7,47.2,578.4,49.7,581.6,49.7"/>
					<path class="st4" d="M581.4,46.9l1.1,0.4c-3.6,0-358.7-1.6-469.1-1.4C2,46.2-123,40.3-124.3,40.2l-0.1-0.4
						c1.2,0.1,128.1,6.1,237.7,5.8C224,45.4,577.8,46.9,581.4,46.9"/>
					<path class="st4" d="M581.1,42.6l-0.1,0.3C562.3,43,539.5,43,515.5,43c-67.7,0.1-144.5,0.1-176.9,0.4
						c-43.7,0.4-177.5-1-253.2-2.1c-73.3-1.1-207.7-3.7-209.1-3.8l-0.8-0.5c1.3,0,138,2.8,211.2,3.9C162,42,294.8,43.4,337.9,43
						c32.7-0.3,109.7-0.4,177.6-0.5C539.6,42.7,562.3,42.7,581.1,42.6"/>
					<path class="st4" d="M581.2,40.7c-12.3,0.1-300.9,2.4-371.4,0.9c-29-0.6-77.6-2.4-129-4.2C6.4,34.7-78,31.7-123.4,31.3l-3-0.4
						C-80,31.3,8.7,34.5,83.4,37.1c51.2,1.8,99.5,3.6,128.1,4.2c69.4,1.5,366.2-0.8,369.2-0.9L581.2,40.7z"/>
					<path class="st4" d="M580.8,29.4c-275,4.5-376.8,7.4-378.5,8.2c-0.1,0.1,0.8,0.1,2.8,0.2c49.4,1.5,372.6,0.5,375.8,0.5l0.1,0.3
						c-13.4,0-327.7,1.1-378.3-0.5c-5.1-0.2-5.7-0.4-5.4-0.5c0.7-0.3,3-1.4,194-5c93.7-1.8,181.5-3.3,182.5-3.3L580.8,29.4z"/>
					<path class="st4" d="M581.5,31.9c-54,1-140.5,2.9-142.7,3.8c0,0-0.1,0,0.4,0.1c9.3,0.6,89.7,0.3,141.5-0.1l0.4,0.3
						c-13.4,0.1-131.8,1-145.7,0c-1.4-0.1-2-0.2-1.7-0.3c3.4-1.3,123.9-3.7,147.7-4.2L581.5,31.9z"/>
					<path class="st4" d="M466.3,27.9c6.3-0.1-94.6,1.5-194.5,3.4c-21.3,0.4-40.3,0.8-57,1.2c-62.9,1.4-100.9,2.2-147,0.6
						c-58.3-2-169.2-4.5-191.1-4.6l-3.1-0.4c25.2,0.2,140.2,2.8,196.8,4.8c44.2,1.5,79.3,0.8,143-0.6c16.8-0.4,35.7-0.8,57.2-1.2
						c99.9-1.9,180-3.3,180.9-3.3L466.3,27.9z"/>
					<path class="st4" d="M329.9,26.1c-7.3,0.1-186.7,3.2-217.7,2.6c-30.1-0.6-233.9-3.5-235.9-3.5l-1-0.4
						c2.1,0,208.2,3.1,238.5,3.6c29.5,0.5,202-2.5,203.8-2.5L329.9,26.1z"/>
					<path class="st4" d="M170.8,24l23.1,0.3c-10.9-0.1-294.4-1.7-318-2.3l-0.6-0.5C-101.7,22.2,168.1,24,170.8,24"/>
					<path class="st4" d="M611.5,197.1c-416.5,0.7-720.1,4-723.1,4.1l-1.9-0.3c3,0,310.5-3.3,727.4-4L611.5,197.1z"/>
					<path class="st4" d="M614.2,193.2c-351.6,0.4-721.8,4.2-725.5,4.3l-1.9-0.3c3.7,0,375.5-3.9,727.4-4.3L614.2,193.2z"/>
					<path class="st4" d="M612.4,189.2c-6.3,0-626.3,2.3-723.8,1.3l-0.2-0.3c96.9,1,720-1.3,726.3-1.3L612.4,189.2z"/>
					<path class="st4" d="M612.3,187.4c-201.6-0.6-717.6-3.9-722.8-3.9l-0.6-0.3c95.5,0.6,610.6,3.6,722.5,3.9L612.3,187.4z"/>
					<path class="st4" d="M612.5,183.9c-6.3-0.1-635.6-5.1-722.6-6.2v-0.3c86.8,1.2,719,6.2,725.3,6.3L612.5,183.9z"/>
					<path class="st4" d="M595,75.2c-431.6,1-746.2,4.4-749.3,4.5l-2-0.3c3.1,0,321.8-3.5,753.8-4.4L595,75.2z"/>
					<path class="st4" d="M597.7,71.3c-364.3,0.6-748,4.6-751.8,4.7l-2-0.3c3.8,0,389.1-4.1,753.8-4.7V71.3z"/>
					<path class="st4" d="M595.8,67.2c-6.5,0-649,2.6-750,1.7l-0.3-0.3c100.4,1,746.1-1.7,752.6-1.7L595.8,67.2z"/>
					<path class="st4" d="M595.7,65.3c-208.9-0.5-743.7-3.6-749-3.6l-0.6-0.3c99,0.6,632.8,3.3,748.8,3.6L595.7,65.3z"/>
					<path class="st4" d="M595.8,61.8c-6.6,0-658.7-4.8-748.9-6v-0.3c90,1.1,745.1,5.9,751.7,6L595.8,61.8z"/>
					<path class="st4" d="M597.7,170.4l1,0.4c-3.2,0-325.9-1.8-433.4-0.8c-107.9,1-289.6,1.3-291.5,1.3l0.2-0.3
						c1.8,0,183.2-0.4,290.9-1.3C273,168.6,594.5,170.3,597.7,170.4"/>
					<path class="st4" d="M597.4,167.5l1.1,0.4c-3.7,0-368.7-0.7-482.2-0.1c-114.5,0.5-243.1-5-244.4-5.1l-0.1-0.4
						c1.3,0.1,131.8,5.7,244.5,5.2C230.1,166.9,593.8,167.5,597.4,167.5"/>
					<path class="st4" d="M597,163.3l-0.1,0.3c-19.3,0.1-42.6,0.2-67.4,0.2c-69.6,0.2-148.6,0.5-181.8,0.9
						c-44.9,0.5-182.4-0.5-260.3-1.4c-75.4-0.9-213.6-3.2-214.9-3.2l-0.8-0.5c1.4,0,141.9,2.5,217.1,3.4c77.4,0.9,214,2,258.3,1.4
						c33.6-0.4,112.7-0.7,182.5-0.9C554.5,163.4,577.8,163.4,597,163.3"/>
					<path class="st4" d="M597.2,161.3c-12.6,0.1-309.3,3.2-381.7,1.8c-29.9-0.6-79.8-2.2-132.6-3.9c-76.5-2.5-163.3-5.3-210-5.5
						l-3.1-0.4c47.7,0.3,138.9,3.2,215.8,5.7c52.6,1.7,102.4,3.3,131.8,3.9c71.4,1.3,376.3-1.8,379.4-1.8L597.2,161.3z"/>
					<path class="st4" d="M596.5,150.1c-282.6,5.2-387.2,8.4-388.9,9.2c-0.1,0.1,0.8,0.1,2.9,0.2c50.8,1.4,382.9-0.5,386.3-0.5
						l0.1,0.3c-13.7,0.1-336.8,1.9-388.8,0.5c-5.2-0.1-5.9-0.3-5.6-0.5c0.8-0.3,3.1-1.4,199.3-5.5c96.2-2,186.5-3.8,187.5-3.8
						L596.5,150.1z"/>
					<path class="st4" d="M597.3,152.6c-55.5,1.2-144.4,3.3-146.6,4.1c-0.1,0-0.1,0,0.5,0.1c9.5,0.6,92.2,0,145.5-0.5l0.4,0.3
						c-13.8,0.1-135.4,1.3-149.7,0.4c-1.5-0.1-2.1-0.2-1.7-0.3c3.5-1.3,127.2-4.1,151.7-4.6L597.3,152.6z"/>
					<path class="st4" d="M478.8,148.9c6.5-0.1-97.2,1.8-199.8,4c-21.9,0.5-41.4,0.9-58.6,1.3c-64.6,1.5-103.7,2.4-151.1,0.9
						c-60-1.9-174-4.1-196.5-4.1l-3.2-0.4c25.9,0.1,144.1,2.4,202.4,4.3c45.5,1.4,81.5,0.6,147-1c17.2-0.4,36.7-0.9,58.7-1.3
						c102.7-2.2,185-3.8,185.9-3.8L478.8,148.9z"/>
					<path class="st4" d="M338.6,147.4c-7.6,0.1-191.9,3.7-223.7,3.2c-31-0.5-240.4-2.9-242.5-2.9l-1-0.4c2.1,0,214,2.5,245.2,3
						c30.4,0.5,207.6-3,209.4-3L338.6,147.4z"/>
					<path class="st4" d="M175,145.7l23.8,0.2c-11.3-0.1-302.6-0.9-326.9-1.4l-0.7-0.5C-105.1,144.6,172.3,145.7,175,145.7"/>
					<path class="st4" d="M619.4,250.8c-12.7,0.1-311.7,3.6-384.8,2.4c-30.1-0.5-80.4-2.1-133.7-3.7c-77.2-2.4-164.7-5-211.8-5.2
						l-3.2-0.4c48.1,0.2,140,3,217.6,5.4c53.1,1.6,103.2,3.2,132.9,3.7c72,1.2,379.4-2.3,382.5-2.4L619.4,250.8z"/>
					<path class="st4" d="M618.6,239.6c-284.8,5.6-390.2,9-391.9,9.7c-0.1,0.1,0.8,0.1,2.9,0.2c51.2,1.3,386.1-1,389.4-1.1l0.1,0.3
						c-13.8,0.1-339.6,2.4-392,1c-5.2-0.1-6-0.3-5.6-0.5c0.8-0.3,3.1-1.4,200.9-5.8c97-2.2,188-4,189-4.1L618.6,239.6z"/>
					<path class="st4" d="M619.4,242.1c-55.9,1.2-145.5,3.5-147.8,4.4c-0.1,0-0.1,0,0.5,0.1c9.6,0.6,93-0.1,146.6-0.7l0.4,0.3
						c-13.9,0.2-136.5,1.5-150.9,0.6c-1.5-0.1-2.1-0.2-1.8-0.3c3.5-1.3,128.2-4.2,152.9-4.8L619.4,242.1z"/>
					<path class="st4" d="M499.9,238.5c6.6-0.1-98,1.9-201.4,4.2c-22.1,0.5-41.7,1-59,1.4c-65.1,1.6-104.5,2.6-152.3,1.2
						c-60.5-1.8-175.5-3.8-198.2-3.9l-3.2-0.4c26.1,0.1,145.3,2.2,204.1,4c45.9,1.4,82.2,0.5,148.1-1.2c17.4-0.4,37-0.9,59.2-1.4
						c103.5-2.3,186.4-4.1,187.3-4.1L499.9,238.5z"/>
					<path class="st4" d="M358.5,237.3c-7.6,0.2-193.4,4-225.4,3.5c-31.3-0.4-242.4-2.5-244.6-2.5l-1-0.4c2.1,0,215.8,2.2,247.2,2.6
						c30.6,0.4,209.2-3.3,211.1-3.3L358.5,237.3z"/>
					<path class="st4" d="M193.6,235.9l24,0.2c-11.3,0-305.1-0.5-329.5-1l-0.7-0.5C-88.8,235.1,190.8,235.9,193.6,235.9"/>
					<path class="st4" d="M-168.1,83.1l-1-0.4c3.5,0,349.3,3,464.5,2.4c115.7-0.6,310.5-0.3,312.5-0.3l-0.3,0.3
						c-1.9,0-196.4-0.3-311.8,0.3C180,86-164.6,83.1-168.1,83.1"/>
					<path class="st4" d="M-167.9,85.9l-1.2-0.4c3.9,0,395.2,2,516.8,1.9c122.8-0.1,260.5,5.9,261.8,6l0.1,0.4
						c-1.4-0.1-141.1-6.2-261.9-6.1C225.8,87.8-164,85.9-167.9,85.9"/>
					<path class="st4" d="M-167.6,90.2l0.1-0.3c20.7,0,45.7,0,72.2,0c74.6,0,159.3,0,194.9-0.2c48.2-0.4,195.5,1.2,278.9,2.4
						c80.8,1.2,228.8,4,230.3,4l0.9,0.5c-1.5,0-152-3-232.6-4.2c-83-1.2-229.3-2.7-276.8-2.4c-36,0.3-120.9,0.3-195.7,0.3
						C-122,90.1-147,90.1-167.6,90.2"/>
					<path class="st4" d="M-167.8,92.1c13.5-0.1,331.6-2,409.3-0.4c32,0.7,85.4,2.5,142,4.4c82,2.7,174.9,5.9,224.9,6.3l3.3,0.4
						c-51.1-0.5-148.8-3.7-231.1-6.5C324.2,94.4,271,92.6,239.5,92C163,90.4-164,92.4-167.3,92.5L-167.8,92.1z"/>
					<path class="st4" d="M-167.5,103.3c303.1-4.2,415.3-7,417.1-7.8c0.1-0.1-0.9-0.1-3.1-0.2c-54.4-1.6-410.5-0.9-414.1-0.9
						l-0.1-0.3c14.7,0,361.1-0.7,416.8,0.9c5.6,0.2,6.3,0.4,6,0.5c-0.8,0.3-3.3,1.4-213.8,4.8c-103.2,1.7-200.1,3.1-201.1,3.1
						L-167.5,103.3z"/>
					<path class="st4" d="M-168.2,100.9c59.5-1,154.8-2.8,157.3-3.6c0.1,0,0.1,0-0.5-0.1c-10.2-0.6-98.8-0.4-155.9,0l-0.5-0.3
						c14.9-0.2,145.3-0.9,160.6,0c1.6,0.1,2.2,0.2,1.9,0.3c-3.8,1.3-136.5,3.6-162.8,4L-168.2,100.9z"/>
					<path class="st4" d="M-41.3,105c-7,0.1,104.3-1.4,214.3-3.2c23.5-0.4,44.4-0.8,62.8-1.1c69.3-1.3,111.2-2.1,162-0.4
						c64.2,2.1,186.4,4.7,210.6,4.9l3.4,0.4c-27.8-0.2-154.4-3-216.8-5c-48.7-1.6-87.4-0.9-157.6,0.4c-18.5,0.3-39.4,0.7-63,1.1
						c-110.1,1.8-198.4,3.1-199.3,3.1L-41.3,105z"/>
					<path class="st4" d="M108.9,106.9c8.1-0.1,205.8-3,239.8-2.4c33.2,0.6,257.7,3.7,259.9,3.8l1.1,0.4c-2.3,0-229.4-3.3-262.8-3.9
						c-32.4-0.5-222.4,2.3-224.4,2.3L108.9,106.9z"/>
					<path class="st4" d="M284.2,109.2l-25.5-0.3c12.1,0.1,324.3,2,350.3,2.6l0.7,0.5C584.5,111.4,287.2,109.2,284.2,109.2"/>
					<path class="st4" d="M576.7,226.7c-416.5,0.7-720.1,4-723.1,4.1l-1.9-0.3c3,0,310.5-3.3,727.4-4L576.7,226.7z"/>
					<path class="st4" d="M579.4,222.8c-351.6,0.4-721.8,4.2-725.5,4.3l-1.9-0.3c3.7,0,375.5-3.9,727.4-4.3V222.8z"/>
					<path class="st4" d="M577.6,218.7c-6.3,0-626.3,2.3-723.8,1.3l-0.2-0.3c96.9,1,720-1.3,726.3-1.3L577.6,218.7z"/>
					<path class="st4" d="M577.6,216.9C376,216.3-140,213-145.2,213l-0.6-0.3c95.5,0.6,610.6,3.6,722.5,3.9L577.6,216.9z"/>
					<path class="st4" d="M577.7,213.5c-6.3-0.1-635.6-5.1-722.6-6.2V207c86.8,1.2,719,6.2,725.3,6.3L577.7,213.5z"/>
				</g>
				<rect x="-101" y="233.7" class="st4" width="681.4" height="1.8"/>
				<rect x="-101" y="203.2" class="st4" width="681.4" height="1.8"/>
				<rect x="-101" y="172.7" class="st4" width="681.4" height="1.8"/>
				<rect x="-101" y="142.2" class="st4" width="681.4" height="1.8"/>
				<rect x="-101" y="111.7" class="st4" width="681.4" height="1.8"/>
				<rect x="-101" y="81.1" class="st4" width="681.4" height="1.8"/>
				<rect x="-101" y="50.6" class="st4" width="681.4" height="1.8"/>
				
					<linearGradient id="SVGID_6_" gradientUnits="userSpaceOnUse" x1="233.752" y1="-33.5" x2="233.752" y2="201.2" gradientTransform="matrix(1 0 0 -1 0 225)">
					<stop  offset="0.2364" style="stop-color:#8A5D3B"/>
					<stop  offset="0.5394" style="stop-color:#A87C4F;stop-opacity:0"/>
					<stop  offset="0.8" style="stop-color:#8A5D3B"/>
				</linearGradient>
				<rect x="-96.2" y="23.8" class="st7" width="659.9" height="234.7"/>
			</g>
		</g>
	</g>
	<path class="st8" d="M331.6,56.1H129.7c-12.9,0-23.3,7.4-23.3,16.6v135.9c0,9.2,10.4,16.6,23.3,16.6h201.9
		c12.9,0,23.3-7.4,23.3-16.6V72.7C354.8,63.5,344.4,56.1,331.6,56.1z M352,207c0,9-10.2,16.2-22.8,16.2H132
		c-12.6,0-22.8-7.3-22.8-16.2V74.3c0-9,10.2-16.2,22.8-16.2h197.3c12.6,0,22.8,7.3,22.8,16.2L352,207L352,207z"/>
	<g>
		<path class="st8" d="M406.1,178.8h-351c-14.1,0-25.7-8.2-25.7-18.3v-38.4c0-10.1,11.5-18.3,25.7-18.3h351
			c14.1,0,25.7,8.2,25.7,18.3v38.4C431.8,170.6,420.2,178.8,406.1,178.8L406.1,178.8z M55.1,107.2c-11.5,0-20.9,6.7-20.9,14.9v38.4
			c0,8.2,9.4,14.9,20.9,14.9h351c11.5,0,20.9-6.7,20.9-14.9v-38.4c0-8.2-9.4-14.9-20.9-14.9H55.1L55.1,107.2z"/>
	</g>
	<g>
		<g>
			<path id="SVGID_7_" class="st8" d="M407.6,190.8c0,9.7-10.7,17.5-23.8,17.5H77.4c-13.2,0-23.8-7.8-23.8-17.5V92
				c0-9.7,10.7-17.5,23.8-17.5h306.3c13.2,0,23.8,7.8,23.8,17.5v98.8H407.6z"/>
		</g>
	</g>
	<g>
		<g>
			<defs>
				<path id="SVGID_8_" d="M403.5,188.2c0,9.2-10.4,16.6-23.3,16.6H81c-12.9,0-23.3-7.4-23.3-16.6V94.4c0-9.2,10.4-16.6,23.3-16.6
					h299.2c12.9,0,23.3,7.4,23.3,16.6V188.2z"/>
			</defs>
			<clipPath id="SVGID_9_">
				<use xlink:href="#SVGID_8_"  style="overflow:visible;"/>
			</clipPath>
			<g class="st9">
				<rect x="-97.2" y="14.3" class="st3" width="659.9" height="285.9"/>
				<g>
					<path class="st4" d="M-143.8,130.4c429.7-0.8,743-4.7,746.1-4.7l2,0.4c-3.1,0-320.4,3.9-750.5,4.7L-143.8,130.4z"/>
					<path class="st4" d="M-146.6,135.1c362.7-0.4,744.7-4.9,748.5-5l2,0.4c-3.8,0-387.4,4.6-750.5,5L-146.6,135.1z"/>
					<path class="st4" d="M-144.7,140.1c6.4,0,646.2-2.6,746.8-1.4l0.2,0.4c-100-1.2-742.9,1.4-749.3,1.4L-144.7,140.1z"/>
					<path class="st4" d="M-144.6,142.3c208,0.8,740.4,4.9,745.8,4.9l0.6,0.4c-98.5-0.8-630-4.5-745.5-4.9L-144.6,142.3z"/>
					<path class="st4" d="M-144.8,146.5c6.6,0.1,655.8,6.3,745.6,7.8v0.4c-89.6-1.4-741.9-7.8-748.4-7.8L-144.8,146.5z"/>
					<path class="st4" d="M580.6,46l0.9,0.5c-3.1,0-317.1-3.2-421.6-2.3c-105,0.9-281.8,0.7-283.6,0.7l0.2-0.4
						c1.8,0,178.3,0.1,283-0.7C264.7,42.9,577.5,45.9,580.6,46"/>
					<path class="st4" d="M580.4,42.5l1.1,0.5c-3.6,0-358.7-2-469.1-1.7C1,41.6-124,34.4-125.3,34.3l-0.1-0.5
						c1.2,0.1,128.1,7.4,237.7,7.1C223.1,40.6,576.9,42.5,580.4,42.5"/>
					<path class="st4" d="M580.1,37.3l-0.1,0.4c-18.7,0-41.5,0.1-65.5,0.1C446.8,37.9,370,38,337.6,38.3
						c-43.7,0.5-177.5-1.2-253.2-2.5c-73.3-1.3-207.7-4.6-209.1-4.6l-0.8-0.6c1.3,0,138,3.5,211.2,4.8c75.3,1.4,208.1,3.1,251.2,2.5
						c32.7-0.4,109.7-0.5,177.6-0.6C538.7,37.4,561.4,37.4,580.1,37.3"/>
					<path class="st4" d="M580.3,34.9c-12.3,0.1-300.9,2.9-371.4,1c-29-0.8-77.6-2.9-129-5.1c-74.4-3.2-158.8-6.9-204.2-7.4l-3-0.5
						c46.4,0.5,135.1,4.3,209.8,7.6c51.2,2.2,99.5,4.3,128.1,5.1c69.4,1.8,366.2-1,369.2-1.1L580.3,34.9z"/>
					<path class="st4" d="M579.8,21.3c-275,5.5-376.8,9-378.5,10c-0.1,0.1,0.8,0.2,2.8,0.2c49.4,1.9,372.6,0.6,375.8,0.6l0.1,0.4
						c-13.4,0.1-327.7,1.3-378.3-0.6c-5.1-0.2-5.8-0.4-5.4-0.6c0.7-0.4,3-1.7,194-6.1c93.7-2.2,181.5-4,182.5-4L579.8,21.3z"/>
					<path class="st4" d="M580.5,24.3c-54,1.2-140.5,3.6-142.7,4.6c-0.1,0-0.1,0,0.4,0.1c9.3,0.8,89.7,0.3,141.5-0.1l0.4,0.4
						c-13.4,0.1-131.8,1.2-145.7,0c-1.4-0.1-2-0.3-1.7-0.4c3.4-1.6,123.9-4.5,147.7-5.1L580.5,24.3z"/>
					<path class="st4" d="M465.3,19.4c6.3-0.1-94.6,1.9-194.5,4.2c-21.3,0.5-40.3,1-57,1.4c-62.9,1.6-100.9,2.6-147,0.7
						C8.5,23.2-102.4,20.2-124.3,20l-3.1-0.5c25.2,0.2,140.2,3.4,196.8,5.8c44.2,1.9,79.3,1,143-0.7c16.8-0.4,35.8-0.9,57.2-1.4
						c99.9-2.3,180-4,180.9-4.1L465.3,19.4z"/>
					<path class="st4" d="M329,17.2c-7.3,0.2-186.7,3.9-217.6,3.2c-30.1-0.7-233.9-4.2-235.9-4.3l-1-0.5c2.1,0,208.2,3.7,238.5,4.4
						c29.5,0.7,202-3,203.8-3L329,17.2z"/>
					<path class="st4" d="M169.8,14.7l23.1,0.4C182,15-101.5,13-125.1,12.3l-0.6-0.6C-102.7,12.4,167.2,14.7,169.8,14.7"/>
					<path class="st4" d="M610.6,225.5c-416.5,0.9-720.1,4.9-723.1,4.9l-1.9-0.4c3,0,310.5-4,727.4-4.9L610.6,225.5z"/>
					<path class="st4" d="M613.3,220.8c-351.6,0.5-721.8,5.1-725.5,5.2l-1.9-0.4c3.7,0,375.5-4.7,727.4-5.2L613.3,220.8z"/>
					<path class="st4" d="M611.5,215.8c-6.3,0-626.3,2.8-723.8,1.6l-0.2-0.4c96.9,1.2,720-1.6,726.3-1.6L611.5,215.8z"/>
					<path class="st4" d="M611.4,213.6c-201.6-0.7-717.6-4.7-722.8-4.7l-0.6-0.4c95.5,0.7,610.6,4.3,722.5,4.7L611.4,213.6z"/>
					<path class="st4" d="M611.5,209.4c-6.3-0.1-635.6-6.2-722.6-7.6v-0.4c86.8,1.4,719,7.6,725.3,7.6L611.5,209.4z"/>
					<path class="st4" d="M594,77c-431.6,1.2-746.2,5.4-749.3,5.4l-2-0.4c3.1,0,321.8-4.2,753.8-5.4L594,77z"/>
					<path class="st4" d="M596.8,72.2c-364.3,0.7-748,5.6-751.8,5.7l-2-0.4c3.8-0.1,389.1-5,753.8-5.8V72.2z"/>
					<path class="st4" d="M594.9,67.2c-6.5,0-649,3.2-750,2l-0.2-0.4c100.4,1.2,746.1-2,752.6-2.1L594.9,67.2z"/>
					<path class="st4" d="M594.8,65c-208.9-0.6-743.7-4.3-749-4.4l-0.6-0.4c99,0.7,632.8,4,748.8,4.4L594.8,65z"/>
					<path class="st4" d="M594.9,60.7c-6.6-0.1-658.7-5.9-748.9-7.3V53c90,1.4,745.1,7.2,751.7,7.3L594.9,60.7z"/>
					<path class="st4" d="M596.8,192.9l1,0.5c-3.2,0-325.9-2.2-433.4-1c-107.9,1.2-289.6,1.6-291.5,1.6l0.2-0.4
						c1.8,0,183.2-0.4,290.9-1.6C272,190.8,593.5,192.9,596.8,192.9"/>
					<path class="st4" d="M596.5,189.4l1.1,0.5c-3.7,0-368.7-0.8-482.2-0.2c-114.5,0.7-243.1-6.1-244.4-6.2l-0.1-0.5
						c1.3,0.1,131.8,7,244.5,6.3C229.2,188.7,592.8,189.4,596.5,189.4"/>
					<path class="st4" d="M596.1,184.3l-0.1,0.4c-19.3,0.1-42.6,0.2-67.4,0.3c-69.6,0.3-148.6,0.6-181.8,1.1
						c-44.9,0.7-182.4-0.6-260.3-1.7c-75.4-1.1-213.6-3.9-214.9-3.9l-0.8-0.6c1.4,0,141.9,3,217.1,4.1c77.4,1.1,214,2.4,258.3,1.7
						c33.6-0.5,112.7-0.8,182.5-1.1C553.5,184.5,576.9,184.4,596.1,184.3"/>
					<path class="st4" d="M596.2,181.9c-12.6,0.2-309.3,3.9-381.7,2.2c-29.9-0.7-79.8-2.6-132.6-4.7c-76.5-3-163.3-6.4-210-6.8
						l-3.1-0.5c47.7,0.3,138.9,3.9,215.8,6.9c52.6,2.1,102.4,4,131.8,4.7c71.4,1.6,376.3-2.2,379.4-2.2L596.2,181.9z"/>
					<path class="st4" d="M595.6,168.2c-282.6,6.3-387.2,10.2-388.9,11.2c-0.1,0.1,0.8,0.2,2.9,0.2c50.8,1.7,382.9-0.6,386.3-0.6
						l0.1,0.4c-13.7,0.1-336.8,2.4-388.8,0.6c-5.2-0.2-5.9-0.4-5.6-0.6c0.8-0.4,3.1-1.7,199.3-6.7c96.2-2.5,186.5-4.6,187.5-4.6
						L595.6,168.2z"/>
					<path class="st4" d="M596.3,171.2c-55.5,1.4-144.4,4-146.6,5.1c-0.1,0-0.1,0,0.5,0.1c9.5,0.7,92.2,0,145.5-0.6l0.4,0.4
						c-13.8,0.2-135.4,1.6-149.7,0.5c-1.5-0.1-2.1-0.3-1.7-0.4c3.5-1.6,127.2-4.9,151.7-5.6L596.3,171.2z"/>
					<path class="st4" d="M477.9,166.7c6.5-0.1-97.2,2.2-199.8,4.8c-21.9,0.6-41.4,1.1-58.6,1.6c-64.6,1.8-103.7,3-151.1,1.1
						c-60-2.3-174-4.9-196.5-5l-3.2-0.5c25.9,0.1,144.1,3,202.4,5.2c45.5,1.7,81.5,0.7,147-1.2c17.2-0.5,36.7-1,58.7-1.6
						c102.7-2.7,185-4.6,185.9-4.6L477.9,166.7z"/>
					<path class="st4" d="M337.6,165c-7.6,0.2-191.9,4.5-223.7,3.9c-31-0.6-240.4-3.5-242.5-3.5l-1-0.5c2.1,0,214,3.1,245.2,3.6
						c30.4,0.6,207.6-3.6,209.4-3.7L337.6,165z"/>
					<path class="st4" d="M174.1,162.9l23.8,0.3c-11.3-0.1-302.6-1.1-326.9-1.8l-0.7-0.6C-106,161.5,171.3,162.9,174.1,162.9"/>
					<path class="st4" d="M618.4,290.9c-12.7,0.2-311.7,4.4-384.8,2.9c-30.1-0.6-80.4-2.5-133.7-4.5c-77.2-2.9-164.7-6.1-211.8-6.4
						l-3.2-0.5c48.1,0.3,140,3.7,217.6,6.6c53.1,2,103.2,3.8,132.9,4.5c72,1.5,379.4-2.8,382.5-2.9L618.4,290.9z"/>
					<path class="st4" d="M617.6,277.2c-284.8,6.8-390.2,10.9-391.9,11.9c-0.1,0.1,0.8,0.2,2.9,0.2c51.2,1.6,386.1-1.3,389.4-1.3
						l0.1,0.4c-13.8,0.1-339.6,2.9-392,1.3c-5.2-0.2-6-0.4-5.6-0.6c0.8-0.4,3.1-1.7,200.9-7.1c97-2.6,188-4.9,189-4.9L617.6,277.2z"
						/>
					<path class="st4" d="M618.4,280.2c-55.9,1.5-145.5,4.3-147.8,5.3c-0.1,0-0.1,0,0.5,0.1c9.6,0.7,93-0.1,146.6-0.8l0.4,0.4
						c-13.9,0.2-136.5,1.8-150.9,0.7c-1.5-0.1-2.1-0.3-1.8-0.4c3.5-1.6,128.2-5.2,152.9-5.8L618.4,280.2z"/>
					<path class="st4" d="M498.9,275.9c6.6-0.1-98,2.3-201.4,5.2c-22.1,0.6-41.7,1.2-59,1.7c-65.1,2-104.5,3.1-152.3,1.4
						c-60.5-2.2-175.5-4.6-198.2-4.7l-3.2-0.5c26.1,0.1,145.3,2.7,204.1,4.8c45.9,1.7,82.2,0.6,148.1-1.4c17.4-0.5,37-1.1,59.2-1.7
						c103.5-2.8,186.4-4.9,187.3-5L498.9,275.9z"/>
					<path class="st4" d="M357.6,274.4c-7.6,0.2-193.4,4.8-225.4,4.3c-31.3-0.5-242.4-3.1-244.6-3.1l-1-0.5
						c2.1,0,215.8,2.7,247.2,3.2c30.6,0.5,209.2-4,211.1-4L357.6,274.4z"/>
					<path class="st4" d="M192.7,272.7l24,0.3c-11.3,0-305.1-0.6-329.5-1.2l-0.7-0.6C-89.7,271.7,189.9,272.7,192.7,272.7"/>
					<path class="st4" d="M-169,86.6l-1-0.5c3.5,0,349.3,3.7,464.5,2.9C410.2,88.3,605,88.6,607,88.6l-0.3,0.4
						c-2,0-196.4-0.4-311.8,0.4C179,90.1-165.6,86.6-169,86.6"/>
					<path class="st4" d="M-168.8,90l-1.2-0.5c3.9,0,395.2,2.5,516.8,2.3c122.8-0.2,260.5,7.2,261.8,7.3l0.1,0.5
						c-1.4-0.1-141.1-7.6-261.9-7.4C224.9,92.4-164.9,90.1-168.8,90"/>
					<path class="st4" d="M-168.6,95.2l0.1-0.4c20.7,0,45.7,0,72.2,0c74.6,0,159.3,0,194.9-0.3c48.2-0.5,195.5,1.4,278.9,2.9
						c80.8,1.4,228.8,4.8,230.3,4.9l0.9,0.6c-1.5,0-152-3.6-232.6-5.1c-83-1.5-229.3-3.3-276.8-2.9c-36,0.3-120.9,0.3-195.7,0.3
						C-122.9,95.2-147.9,95.2-168.6,95.2"/>
					<path class="st4" d="M-168.8,97.6c13.5-0.1,331.6-2.5,409.3-0.5c32,0.8,85.4,3,142,5.3c82,3.3,174.9,7.1,224.9,7.7l3.4,0.5
						c-51.1-0.6-148.8-4.5-231.1-7.9c-56.4-2.3-109.6-4.5-141.1-5.3C162.1,95.5-164.9,98-168.2,98L-168.8,97.6z"/>
					<path class="st4" d="M-168.4,111.3c303.1-5.1,415.3-8.5,417.1-9.5c0.1-0.1-0.9-0.2-3.1-0.2c-54.4-2-410.5-1.1-414.1-1.1
						l-0.1-0.4c14.7,0,361.1-0.9,416.8,1.1c5.6,0.2,6.3,0.4,6,0.6c-0.8,0.4-3.3,1.7-213.8,5.8c-103.2,2-200.1,3.8-201.1,3.8
						L-168.4,111.3z"/>
					<path class="st4" d="M-169.1,108.2c59.5-1.2,154.8-3.4,157.3-4.4c0.1,0,0.1,0-0.5-0.1c-10.2-0.8-98.9-0.5-155.9-0.1l-0.5-0.4
						c14.8-0.1,145.2-1,160.5,0.2c1.6,0.1,2.2,0.3,1.9,0.4c-3.8,1.5-136.5,4.4-162.8,4.9V108.2z"/>
					<path class="st4" d="M-42.2,113.3c-7,0.1,104.3-1.7,214.3-3.9c23.5-0.5,44.4-0.9,62.8-1.4c69.3-1.6,111.2-2.5,162-0.5
						c64.2,2.6,186.4,5.7,210.6,5.9l3.4,0.5c-27.8-0.2-154.4-3.6-216.8-6.1c-48.7-1.9-87.4-1.1-157.6,0.5c-18.5,0.4-39.4,0.9-63,1.4
						c-110.1,2.2-198.4,3.8-199.3,3.8L-42.2,113.3z"/>
					<path class="st4" d="M108,115.6c8.1-0.1,205.8-3.6,239.8-2.9c33.2,0.7,257.6,4.5,259.9,4.6l1.1,0.5c-2.3,0-229.4-4-262.8-4.7
						c-32.5-0.7-222.5,2.7-224.5,2.8L108,115.6z"/>
					<path class="st4" d="M283.3,118.4l-25.5-0.4c12.1,0.1,324.3,2.5,350.3,3.2l0.7,0.6C583.5,121.1,286.2,118.4,283.3,118.4"/>
					<path class="st4" d="M575.8,261.5c-416.5,0.9-720.1,4.9-723.1,4.9l-1.9-0.4c3,0,310.5-4,727.4-4.9L575.8,261.5z"/>
					<path class="st4" d="M578.5,256.8c-351.6,0.5-721.8,5.1-725.5,5.2l-1.9-0.4c3.7,0,375.5-4.7,727.4-5.2V256.8z"/>
					<path class="st4" d="M576.7,251.8c-6.3,0-626.3,2.8-723.8,1.6l-0.2-0.4c96.9,1.2,720-1.6,726.3-1.6L576.7,251.8z"/>
					<path class="st4" d="M576.6,249.6c-201.6-0.7-717.6-4.7-722.8-4.7l-0.6-0.4c95.5,0.7,610.6,4.3,722.5,4.7L576.6,249.6z"/>
					<path class="st4" d="M576.8,245.4c-6.3-0.1-635.6-6.2-722.6-7.6v-0.4c86.8,1.4,719,7.6,725.3,7.6L576.8,245.4z"/>
				</g>
				<rect x="-101.9" y="270" class="st4" width="681.4" height="2.2"/>
				<rect x="-101.9" y="232.9" class="st4" width="681.4" height="2.2"/>
				<rect x="-101.9" y="195.7" class="st4" width="681.4" height="2.2"/>
				<rect x="-101.9" y="158.5" class="st4" width="681.4" height="2.2"/>
				<rect x="-101.9" y="121.4" class="st4" width="681.4" height="2.2"/>
				<rect x="-101.9" y="84.2" class="st4" width="681.4" height="2.2"/>
				<rect x="-101.9" y="47.1" class="st4" width="681.4" height="2.2"/>
				
					<linearGradient id="SVGID_10_" gradientUnits="userSpaceOnUse" x1="232.752" y1="-75.2" x2="232.752" y2="210.7" gradientTransform="matrix(1 0 0 -1 0 225)">
					<stop  offset="0.3273" style="stop-color:#8A5D3B"/>
					<stop  offset="0.5394" style="stop-color:#A87C4F;stop-opacity:0"/>
					<stop  offset="0.8" style="stop-color:#8A5D3B"/>
				</linearGradient>
				<rect x="-97.2" y="14.3" class="st10" width="659.9" height="285.9"/>
			</g>
		</g>
	</g>
	<g>
		<g>
			<g>
				<path class="st11" d="M165.9,187.3c0,2.7-3,4.9-6.7,4.9h-87c-3.7,0-6.7-2.2-6.7-4.9V94.2c0-2.7,3-4.9,6.7-4.9h87
					c3.7,0,6.7,2.2,6.7,4.9V187.3z"/>
				<g>
					
						<linearGradient id="SVGID_11_" gradientUnits="userSpaceOnUse" x1="115.702" y1="36.3" x2="115.702" y2="132.1" gradientTransform="matrix(1 0 0 -1 0 225)">
						<stop  offset="0" style="stop-color:#D0D2D3"/>
						<stop  offset="0.1758" style="stop-color:#6D6E70"/>
						<stop  offset="0.3576" style="stop-color:#D0D2D3"/>
						<stop  offset="0.5152" style="stop-color:#808184"/>
						<stop  offset="0.6788" style="stop-color:#D0D2D3"/>
						<stop  offset="0.8364" style="stop-color:#58595B"/>
						<stop  offset="1" style="stop-color:#D0D2D3"/>
					</linearGradient>
					<path class="st12" d="M161.1,184.2c0,2.5-3,4.5-6.7,4.5H77c-3.7,0-6.7-2-6.7-4.5v-88c0-2.5,0.1-3.3,3.8-3.3h82.4
						c3.7,0,4.6,0.2,4.6,2.7V184.2z"/>
					<g>
						<path class="st13" d="M157.2,181.5c0,2.3-2.7,4.2-6.1,4.2H80.4c-3.4,0-6.1-1.9-6.1-4.2V100c0-2.3,2.7-4.2,6.1-4.2h70.7
							c3.4,0,6.1,1.9,6.1,4.2V181.5z"/>
						
							<linearGradient id="SVGID_12_" gradientUnits="userSpaceOnUse" x1="115.752" y1="39.3" x2="115.752" y2="129.3248" gradientTransform="matrix(1 0 0 -1 0 225)">
							<stop  offset="1.818180e-02" style="stop-color:#000000"/>
							<stop  offset="0.1722" style="stop-color:#5B5B5B"/>
							<stop  offset="0.3804" style="stop-color:#D0D0D0"/>
							<stop  offset="0.4727" style="stop-color:#FFFFFF"/>
							<stop  offset="0.5217" style="stop-color:#F9F9F9"/>
							<stop  offset="0.5877" style="stop-color:#E8E8E8"/>
							<stop  offset="0.6634" style="stop-color:#CCCCCC"/>
							<stop  offset="0.7463" style="stop-color:#A4A4A4"/>
							<stop  offset="0.8352" style="stop-color:#727272"/>
							<stop  offset="0.9275" style="stop-color:#353535"/>
							<stop  offset="1" style="stop-color:#000000"/>
						</linearGradient>
						<path class="st14" d="M157.2,181.5c0,2.3-2.7,4.2-6.1,4.2H80.4c-3.4,0-6.1-1.9-6.1-4.2V100c0-2.3,2.7-4.2,6.1-4.2h70.7
							c3.4,0,6.1,1.9,6.1,4.2V181.5z"/>
					</g>
				</g>
			</g>
		</g>
		<g>
			<g>
				<path class="st11" d="M281.3,187.3c0,2.7-3,4.9-6.7,4.9h-87c-3.7,0-6.7-2.2-6.7-4.9V94.2c0-2.7,3-4.9,6.7-4.9h87
					c3.7,0,6.7,2.2,6.7,4.9V187.3z"/>
				<g>
					
						<linearGradient id="SVGID_13_" gradientUnits="userSpaceOnUse" x1="231.102" y1="36.3" x2="231.102" y2="132.1" gradientTransform="matrix(1 0 0 -1 0 225)">
						<stop  offset="0" style="stop-color:#D0D2D3"/>
						<stop  offset="0.1758" style="stop-color:#6D6E70"/>
						<stop  offset="0.3576" style="stop-color:#D0D2D3"/>
						<stop  offset="0.5152" style="stop-color:#808184"/>
						<stop  offset="0.6788" style="stop-color:#D0D2D3"/>
						<stop  offset="0.8364" style="stop-color:#58595B"/>
						<stop  offset="1" style="stop-color:#D0D2D3"/>
					</linearGradient>
					<path class="st15" d="M276.5,184.2c0,2.5-3,4.5-6.7,4.5h-77.4c-3.7,0-6.7-2-6.7-4.5v-88c0-2.5,0.1-3.3,3.8-3.3h82.3
						c3.7,0,4.6,0.2,4.6,2.7v88.6H276.5z"/>
					<g>
						<path class="st13" d="M272.6,181.5c0,2.3-2.7,4.2-6.1,4.2h-70.7c-3.4,0-6.1-1.9-6.1-4.2V100c0-2.3,2.7-4.2,6.1-4.2h70.7
							c3.4,0,6.1,1.9,6.1,4.2V181.5z"/>
						
							<linearGradient id="SVGID_14_" gradientUnits="userSpaceOnUse" x1="231.152" y1="39.3" x2="231.152" y2="129.3248" gradientTransform="matrix(1 0 0 -1 0 225)">
							<stop  offset="1.818180e-02" style="stop-color:#000000"/>
							<stop  offset="0.1722" style="stop-color:#5B5B5B"/>
							<stop  offset="0.3804" style="stop-color:#D0D0D0"/>
							<stop  offset="0.4727" style="stop-color:#FFFFFF"/>
							<stop  offset="0.5217" style="stop-color:#F9F9F9"/>
							<stop  offset="0.5877" style="stop-color:#E8E8E8"/>
							<stop  offset="0.6634" style="stop-color:#CCCCCC"/>
							<stop  offset="0.7463" style="stop-color:#A4A4A4"/>
							<stop  offset="0.8352" style="stop-color:#727272"/>
							<stop  offset="0.9275" style="stop-color:#353535"/>
							<stop  offset="1" style="stop-color:#000000"/>
						</linearGradient>
						<path class="st16" d="M272.6,181.5c0,2.3-2.7,4.2-6.1,4.2h-70.7c-3.4,0-6.1-1.9-6.1-4.2V100c0-2.3,2.7-4.2,6.1-4.2h70.7
							c3.4,0,6.1,1.9,6.1,4.2V181.5z"/>
					</g>
				</g>
			</g>
		</g>
		<g>
			<g>
				<path class="st11" d="M396.7,187.3c0,2.7-3,4.9-6.7,4.9h-87c-3.7,0-6.7-2.2-6.7-4.9V94.2c0-2.7,3-4.9,6.7-4.9h87
					c3.7,0,6.7,2.2,6.7,4.9V187.3z"/>
				<g>
					
						<linearGradient id="SVGID_15_" gradientUnits="userSpaceOnUse" x1="346.502" y1="36.3" x2="346.502" y2="132.1" gradientTransform="matrix(1 0 0 -1 0 225)">
						<stop  offset="0" style="stop-color:#D0D2D3"/>
						<stop  offset="0.1758" style="stop-color:#6D6E70"/>
						<stop  offset="0.3576" style="stop-color:#D0D2D3"/>
						<stop  offset="0.5152" style="stop-color:#808184"/>
						<stop  offset="0.6788" style="stop-color:#D0D2D3"/>
						<stop  offset="0.8364" style="stop-color:#58595B"/>
						<stop  offset="1" style="stop-color:#D0D2D3"/>
					</linearGradient>
					<path class="st17" d="M391.9,184.2c0,2.5-3,4.5-6.7,4.5h-77.4c-3.7,0-6.7-2-6.7-4.5v-88c0-2.5,0.1-3.3,3.8-3.3h82.3
						c3.7,0,4.6,0.2,4.6,2.7v88.6H391.9z"/>
					<g>
						<path class="st13" d="M388,181.5c0,2.3-2.7,4.2-6.1,4.2h-70.7c-3.4,0-6.1-1.9-6.1-4.2V100c0-2.3,2.7-4.2,6.1-4.2h70.7
							c3.4,0,6.1,1.9,6.1,4.2L388,181.5L388,181.5z"/>
						
							<linearGradient id="SVGID_16_" gradientUnits="userSpaceOnUse" x1="346.552" y1="39.3" x2="346.552" y2="129.3248" gradientTransform="matrix(1 0 0 -1 0 225)">
							<stop  offset="1.818180e-02" style="stop-color:#000000"/>
							<stop  offset="0.1722" style="stop-color:#5B5B5B"/>
							<stop  offset="0.3804" style="stop-color:#D0D0D0"/>
							<stop  offset="0.4727" style="stop-color:#FFFFFF"/>
							<stop  offset="0.5217" style="stop-color:#F9F9F9"/>
							<stop  offset="0.5877" style="stop-color:#E8E8E8"/>
							<stop  offset="0.6634" style="stop-color:#CCCCCC"/>
							<stop  offset="0.7463" style="stop-color:#A4A4A4"/>
							<stop  offset="0.8352" style="stop-color:#727272"/>
							<stop  offset="0.9275" style="stop-color:#353535"/>
							<stop  offset="1" style="stop-color:#000000"/>
						</linearGradient>
						<path class="st18" d="M388,181.5c0,2.3-2.7,4.2-6.1,4.2h-70.7c-3.4,0-6.1-1.9-6.1-4.2V100c0-2.3,2.7-4.2,6.1-4.2h70.7
							c3.4,0,6.1,1.9,6.1,4.2L388,181.5L388,181.5z"/>
					</g>
				</g>
			</g>
		</g>
	</g>
	<g class="st19">
		<path class="st20" d="M311,66.9c0,2.2-3,3.9-6.6,3.9h-163c-3.7,0-6.6-1.8-6.6-3.9l0,0c0-2.2,3-3.9,6.6-3.9h163
			C308.1,62.9,311,64.7,311,66.9L311,66.9z"/>
		<path class="st20" d="M326.5,66.9c0,2.2-2.5,3.9-5.5,3.9c-3.1,0-5.5-1.8-5.5-3.9c0-2.2,2.5-3.9,5.5-3.9
			C324,62.9,326.5,64.7,326.5,66.9z"/>
	</g>
	<g class="st19">
		<path class="st20" d="M150.2,215.3c0,2.2,3,3.9,6.6,3.9h163c3.7,0,6.6-1.8,6.6-3.9l0,0c0-2.2-3-3.9-6.6-3.9h-163
			C153.1,211.4,150.2,213.1,150.2,215.3L150.2,215.3z"/>
		<ellipse class="st20" cx="140.3" cy="215.3" rx="5.5" ry="3.9"/>
	</g>
	<g>
		<g>
			<g>
				<g>
					<path class="st21" d="M268.7,29.5c-0.3-0.8-1.1-1.4-2.1-1.6l-23.9-3.5L232,5.7c-0.4-0.8-1.4-1.3-2.4-1.3s-1.9,0.5-2.4,1.2
						L216,24l-24,2.9c-1,0.1-1.8,0.7-2.2,1.5c-0.3,0.8-0.1,1.7,0.6,2.3l16.9,14.9l-4.1,20.5c-0.2,0.8,0.2,1.7,1,2.2
						c0.2,0.1,0.5,0.3,0.8,0.3c0.7,0.2,1.4,0.1,2-0.1l21.7-9.2l21.4,9.7c0.9,0.4,2,0.3,2.8-0.2s1.3-1.3,1.1-2.2L250.5,46l17.4-14.5
						C268.7,31.2,269,30.3,268.7,29.5z"/>
					<path class="st21" d="M203.7,72c-0.7-0.2-1.3-0.5-1.9-0.9c-2-1.3-3-3.4-2.6-5.6l3.8-18.7l-15.5-13.6c-1.8-1.6-2.4-3.8-1.5-5.8
						c0.8-2.1,2.9-3.5,5.4-3.8l22-2.7l10.3-16.8c1.2-1.9,3.5-3.1,6-3.1s4.8,1.3,5.9,3.2l9.8,17.1l21.9,3.2c2.6,0.4,4.5,1.9,5.3,4
						c0.7,2.1,0.1,4.3-1.7,5.8L255,47.5l3.2,18.8c0.4,2.1-0.7,4.3-2.8,5.5c-1.7,1-4,1.3-6,0.8l0,0c-0.3-0.1-0.7-0.2-1-0.4l-19.6-8.9
						l-19.9,8.4C207.2,72.4,205.4,72.5,203.7,72L203.7,72z M195.2,30.1l16.5,14.5l-4,20l21.2-9l20.9,9.5L246.3,45l17-14.1L240,27.5
						L229.6,9.3l-11,17.9L195.2,30.1L195.2,30.1z"/>
				</g>
				<path class="st22" d="M268.7,29.5c-0.3-0.8-1.1-1.4-2.1-1.6l-23.9-3.5L232,5.7c-0.4-0.8-1.4-1.3-2.4-1.3s-1.9,0.5-2.4,1.2
					L216,24l-24,2.9c-1,0.1-1.8,0.7-2.2,1.5c-0.3,0.8-0.1,1.7,0.6,2.3l16.9,14.9l-4.1,20.5c-0.2,0.8,0.2,1.7,1,2.2
					c0.2,0.1,0.5,0.3,0.8,0.3c0.7,0.2,1.4,0.1,2-0.1l21.7-9.2l21.4,9.7c0.9,0.4,2,0.3,2.8-0.2s1.3-1.3,1.1-2.2L250.5,46l17.4-14.5
					C268.7,31.2,269,30.3,268.7,29.5z"/>
				<g>
					<path class="st23" d="M224.3,51.7c0.2-0.9,4.8-11.8,4.8-11.8l-6.4-6.6c0,0-9.5-0.7-10-0.9s-20.2-3-20.2-3L210.2,45l-4.4,21.6
						C205.8,66.6,224.1,52.6,224.3,51.7z"/>
					<path class="st21" d="M237.6,43.5c-0.9-1-2-2.2-2.5-2.4s-6-1.3-6-1.3l-23.2,26.8l23-9.7l22.6,10.2c0,0-8.4-14.1-9.1-14.6
						S238.5,44.5,237.6,43.5z"/>
					<polygon class="st23" points="266.1,30.1 240.9,26.4 229.1,39.8 251.4,67.1 247.8,45.4 					"/>
					<path class="st24" d="M229.6,6.7c0,0-4.7,12.9-4.8,13.5c0,0.6,4.2,19.6,4.2,19.6l37.1-9.7l-25.2-3.7L229.6,6.7z"/>
					<polygon class="st25" points="229.6,6.7 217.7,26.1 192.4,29.3 229.1,39.8 					"/>
				</g>
			</g>
			<g>
				<g>
					<g>
						<g>
							<path class="st21" d="M181.9,39.3c-0.3-0.5-0.9-0.8-1.6-0.8h-15.9l-9.4-11c-0.4-0.5-1-0.7-1.7-0.6s-1.2,0.5-1.4,1l-4.9,13
								l-15.1,4.2c-0.6,0.2-1.1,0.6-1.2,1.2c-0.1,0.6,0.2,1.1,0.7,1.4l12.9,8v13.6c0,0.6,0.4,1.1,1,1.3c0.2,0.1,0.4,0.1,0.5,0.1
								c0.4,0.1,0.9,0,1.3-0.3l12.8-8l15.1,4.2c0.6,0.2,1.3,0,1.8-0.4s0.6-1,0.4-1.5l-5-12.9l9.3-11
								C182.1,40.4,182.2,39.8,181.9,39.3z"/>
							<path class="st21" d="M145.6,73c-0.5-0.1-0.9-0.2-1.3-0.4c-1.5-0.6-2.4-1.9-2.4-3.3V56.8l-11.8-7.3c-1.3-0.8-2-2.2-1.8-3.6
								c0.3-1.4,1.4-2.5,3-3l13.8-3.9l4.4-11.9c0.5-1.4,1.8-2.3,3.5-2.6c1.6-0.2,3.3,0.4,4.2,1.5l8.6,10.1h14.5c1.7,0,3.2,0.8,3.9,2
								c0.8,1.3,0.6,2.8-0.3,3.9l-8.5,10.1l4.5,11.8c0.5,1.3,0.1,2.8-1.1,3.8c-1,0.8-2.4,1.2-3.7,1.1l0,0c-0.2,0-0.5-0.1-0.7-0.1
								L160.5,65l-11.7,7.4C147.9,73,146.7,73.2,145.6,73L145.6,73z M134.5,46.8l12.6,7.8v13.3l12.5-7.8l14.7,4.1l-4.8-12.7
								l9.1-10.8h-15.5L154,30l-4.7,12.6L134.5,46.8L134.5,46.8z"/>
						</g>
						<path class="st22" d="M181.9,39.3c-0.3-0.5-0.9-0.8-1.6-0.8h-15.9l-9.4-11c-0.4-0.5-1-0.7-1.7-0.6s-1.2,0.5-1.4,1l-4.9,13
							l-15.1,4.2c-0.6,0.2-1.1,0.6-1.2,1.2c-0.1,0.6,0.2,1.1,0.7,1.4l12.9,8v13.6c0,0.6,0.4,1.1,1,1.3c0.2,0.1,0.4,0.1,0.5,0.1
							c0.4,0.1,0.9,0,1.3-0.3l12.8-8l15.1,4.2c0.6,0.2,1.3,0,1.8-0.4s0.6-1,0.4-1.5l-5-12.9l9.3-11
							C182.1,40.4,182.2,39.8,181.9,39.3z"/>
						<g>
							<path class="st23" d="M156.2,57.9c0-0.6,1.5-8.1,1.5-8.1l-5-3.7c0,0-6.2,0.4-6.6,0.4c-0.4-0.1-13.5,0-13.5,0l13.6,8.4v14.4
								C146.2,69.3,156.2,58.5,156.2,57.9z"/>
							<path class="st21" d="M163.7,51.4c-0.7-0.5-1.6-1.2-1.9-1.3c-0.4-0.1-4.1-0.3-4.1-0.3l-11.5,19.5l13.5-8.5l16,4.4
								c0,0-7.3-8.3-7.8-8.6C167.4,56.5,164.4,51.9,163.7,51.4z"/>
							<polygon class="st23" points="180.3,40 163.5,40 157.7,49.8 175.7,65.3 170.5,51.6 							"/>
							<path class="st24" d="M153.7,28.4c0,0-1.4,8.8-1.3,9.2c0.1,0.4,5.3,12.2,5.3,12.2l22.6-9.9L163.5,40L153.7,28.4z"/>
							<polygon class="st25" points="153.7,28.4 148.5,42.1 132.6,46.5 157.7,49.8 							"/>
						</g>
					</g>
				</g>
				<g>
					<g>
						<g>
							<path class="st21" d="M276.6,39.3c0.3-0.5,0.9-0.8,1.6-0.8h15.9l9.4-11c0.4-0.5,1-0.7,1.7-0.6c0.6,0.1,1.2,0.5,1.4,1l4.9,13
								l15.1,4.2c0.6,0.2,1.1,0.6,1.2,1.2c0.1,0.6-0.2,1.1-0.7,1.4l-12.9,8v13.6c0,0.6-0.4,1.1-1,1.3c-0.2,0.1-0.4,0.1-0.5,0.1
								c-0.4,0.1-0.9,0-1.3-0.3l-12.8-8l-15.1,4.2c-0.6,0.2-1.3,0-1.8-0.4s-0.6-1-0.4-1.5l5-12.9l-9.3-11
								C276.4,40.4,276.3,39.8,276.6,39.3z"/>
							<path class="st21" d="M312.9,73c-1.1,0.1-2.3-0.1-3.2-0.7L297.9,65l-13.8,3.8c-0.2,0.1-0.5,0.1-0.7,0.1l0,0
								c-1.4,0.2-2.8-0.2-3.7-1.1c-1.2-1-1.6-2.5-1.1-3.8l4.5-11.8l-8.5-10.1c-1-1.2-1.1-2.7-0.4-3.9s2.2-2,3.9-2h14.5l8.6-10.1
								c1-1.1,2.6-1.7,4.2-1.5s3,1.2,3.5,2.6l4.4,11.9l13.8,3.9c1.6,0.4,2.7,1.6,3,3s-0.4,2.8-1.8,3.6l-11.8,7.3v12.5
								c0,1.4-0.9,2.7-2.4,3.3C313.8,72.9,313.4,73,312.9,73L312.9,73z M324,46.8l-14.7-4.1L304.5,30l-9.1,10.7h-15.5l9.1,10.8
								l-4.8,12.6l14.7-4.1l12.5,7.8V54.5L324,46.8L324,46.8z"/>
						</g>
						<path class="st22" d="M276.6,39.3c0.3-0.5,0.9-0.8,1.6-0.8h15.9l9.4-11c0.4-0.5,1-0.7,1.7-0.6c0.6,0.1,1.2,0.5,1.4,1l4.9,13
							l15.1,4.2c0.6,0.2,1.1,0.6,1.2,1.2c0.1,0.6-0.2,1.1-0.7,1.4l-12.9,8v13.6c0,0.6-0.4,1.1-1,1.3c-0.2,0.1-0.4,0.1-0.5,0.1
							c-0.4,0.1-0.9,0-1.3-0.3l-12.8-8l-15.1,4.2c-0.6,0.2-1.3,0-1.8-0.4s-0.6-1-0.4-1.5l5-12.9l-9.3-11
							C276.4,40.4,276.3,39.8,276.6,39.3z"/>
						<g>
							<path class="st23" d="M302.3,57.9c0-0.6-1.5-8.1-1.5-8.1l5-3.7c0,0,6.2,0.4,6.6,0.4c0.4-0.1,13.5,0,13.5,0L312.3,55v14.4
								C312.3,69.3,302.3,58.5,302.3,57.9z"/>
							<path class="st21" d="M294.8,51.4c0.7-0.5,1.6-1.2,1.9-1.3c0.4-0.1,4.1-0.3,4.1-0.3l11.5,19.5l-13.5-8.5l-16,4.4
								c0,0,7.3-8.3,7.8-8.6C291.1,56.5,294.1,51.9,294.8,51.4z"/>
							<polygon class="st23" points="278.2,40 294.9,40 300.8,49.8 282.8,65.3 288,51.6 							"/>
							<path class="st24" d="M304.8,28.4c0,0,1.4,8.8,1.3,9.2c-0.1,0.4-5.3,12.2-5.3,12.2L278.2,40H295L304.8,28.4z"/>
							<polygon class="st25" points="304.8,28.4 309.9,42.1 325.9,46.5 300.8,49.8 							"/>
						</g>
					</g>
				</g>
			</g>
		</g>
		<g class="st26">
			<g>
				<g>
					<path class="st21" d="M268.7,29.5c-0.3-0.8-1.1-1.4-2.1-1.6l-23.9-3.5L232,5.7c-0.4-0.8-1.4-1.3-2.4-1.3s-1.9,0.5-2.4,1.2
						L216,24l-24,2.9c-1,0.1-1.8,0.7-2.2,1.5c-0.3,0.8-0.1,1.7,0.6,2.3l16.9,14.9l-4.1,20.5c-0.2,0.8,0.2,1.7,1,2.2
						c0.2,0.1,0.5,0.3,0.8,0.3c0.7,0.2,1.4,0.1,2-0.1l21.7-9.2l21.4,9.7c0.9,0.4,2,0.3,2.8-0.2s1.3-1.3,1.1-2.2L250.5,46l17.4-14.5
						C268.7,31.2,269,30.3,268.7,29.5z"/>
					<path class="st21" d="M203.7,72c-0.7-0.2-1.3-0.5-1.9-0.9c-2-1.3-3-3.4-2.6-5.6l3.8-18.7l-15.5-13.6c-1.8-1.6-2.4-3.8-1.5-5.8
						c0.8-2.1,2.9-3.5,5.4-3.8l22-2.7l10.3-16.8c1.2-1.9,3.5-3.1,6-3.1s4.8,1.3,5.9,3.2l9.8,17.1l21.9,3.2c2.6,0.4,4.5,1.9,5.3,4
						c0.7,2.1,0.1,4.3-1.7,5.8L255,47.5l3.2,18.8c0.4,2.1-0.7,4.3-2.8,5.5c-1.7,1-4,1.3-6,0.8l0,0c-0.3-0.1-0.7-0.2-1-0.4l-19.6-8.9
						l-19.9,8.4C207.2,72.4,205.4,72.5,203.7,72L203.7,72z M195.2,30.1l16.5,14.5l-4,20l21.2-9l20.9,9.5L246.3,45l17-14.1L240,27.5
						L229.6,9.3l-11,17.9L195.2,30.1L195.2,30.1z"/>
				</g>
				<path class="st22" d="M268.7,29.5c-0.3-0.8-1.1-1.4-2.1-1.6l-23.9-3.5L232,5.7c-0.4-0.8-1.4-1.3-2.4-1.3s-1.9,0.5-2.4,1.2
					L216,24l-24,2.9c-1,0.1-1.8,0.7-2.2,1.5c-0.3,0.8-0.1,1.7,0.6,2.3l16.9,14.9l-4.1,20.5c-0.2,0.8,0.2,1.7,1,2.2
					c0.2,0.1,0.5,0.3,0.8,0.3c0.7,0.2,1.4,0.1,2-0.1l21.7-9.2l21.4,9.7c0.9,0.4,2,0.3,2.8-0.2s1.3-1.3,1.1-2.2L250.5,46l17.4-14.5
					C268.7,31.2,269,30.3,268.7,29.5z"/>
				<g>
					<path class="st23" d="M224.3,51.7c0.2-0.9,4.8-11.8,4.8-11.8l-6.4-6.6c0,0-9.5-0.7-10-0.9s-20.2-3-20.2-3L210.2,45l-4.4,21.6
						C205.8,66.6,224.1,52.6,224.3,51.7z"/>
					<path class="st21" d="M237.6,43.5c-0.9-1-2-2.2-2.5-2.4s-6-1.3-6-1.3l-23.2,26.8l23-9.7l22.6,10.2c0,0-8.4-14.1-9.1-14.6
						S238.5,44.5,237.6,43.5z"/>
					<polygon class="st23" points="266.1,30.1 240.9,26.4 229.1,39.8 251.4,67.1 247.8,45.4 					"/>
					<path class="st24" d="M229.6,6.7c0,0-4.7,12.9-4.8,13.5c0,0.6,4.2,19.6,4.2,19.6l37.1-9.7l-25.2-3.7L229.6,6.7z"/>
					<polygon class="st25" points="229.6,6.7 217.7,26.1 192.4,29.3 229.1,39.8 					"/>
				</g>
			</g>
			<g>
				<g>
					<g>
						<g>
							<path class="st21" d="M181.9,39.3c-0.3-0.5-0.9-0.8-1.6-0.8h-15.9l-9.4-11c-0.4-0.5-1-0.7-1.7-0.6s-1.2,0.5-1.4,1l-4.9,13
								l-15.1,4.2c-0.6,0.2-1.1,0.6-1.2,1.2c-0.1,0.6,0.2,1.1,0.7,1.4l12.9,8v13.6c0,0.6,0.4,1.1,1,1.3c0.2,0.1,0.4,0.1,0.5,0.1
								c0.4,0.1,0.9,0,1.3-0.3l12.8-8l15.1,4.2c0.6,0.2,1.3,0,1.8-0.4s0.6-1,0.4-1.5l-5-12.9l9.3-11
								C182.1,40.4,182.2,39.8,181.9,39.3z"/>
							<path class="st21" d="M145.6,73c-0.5-0.1-0.9-0.2-1.3-0.4c-1.5-0.6-2.4-1.9-2.4-3.3V56.8l-11.8-7.3c-1.3-0.8-2-2.2-1.8-3.6
								c0.3-1.4,1.4-2.5,3-3l13.8-3.9l4.4-11.9c0.5-1.4,1.8-2.3,3.5-2.6c1.6-0.2,3.3,0.4,4.2,1.5l8.6,10.1h14.5c1.7,0,3.2,0.8,3.9,2
								c0.8,1.3,0.6,2.8-0.3,3.9l-8.5,10.1l4.5,11.8c0.5,1.3,0.1,2.8-1.1,3.8c-1,0.8-2.4,1.2-3.7,1.1l0,0c-0.2,0-0.5-0.1-0.7-0.1
								L160.5,65l-11.7,7.4C147.9,73,146.7,73.2,145.6,73L145.6,73z M134.5,46.8l12.6,7.8v13.3l12.5-7.8l14.7,4.1l-4.8-12.7
								l9.1-10.8h-15.5L154,30l-4.7,12.6L134.5,46.8L134.5,46.8z"/>
						</g>
						<path class="st22" d="M181.9,39.3c-0.3-0.5-0.9-0.8-1.6-0.8h-15.9l-9.4-11c-0.4-0.5-1-0.7-1.7-0.6s-1.2,0.5-1.4,1l-4.9,13
							l-15.1,4.2c-0.6,0.2-1.1,0.6-1.2,1.2c-0.1,0.6,0.2,1.1,0.7,1.4l12.9,8v13.6c0,0.6,0.4,1.1,1,1.3c0.2,0.1,0.4,0.1,0.5,0.1
							c0.4,0.1,0.9,0,1.3-0.3l12.8-8l15.1,4.2c0.6,0.2,1.3,0,1.8-0.4s0.6-1,0.4-1.5l-5-12.9l9.3-11
							C182.1,40.4,182.2,39.8,181.9,39.3z"/>
						<g>
							<path class="st23" d="M156.2,57.9c0-0.6,1.5-8.1,1.5-8.1l-5-3.7c0,0-6.2,0.4-6.6,0.4c-0.4-0.1-13.5,0-13.5,0l13.6,8.4v14.4
								C146.2,69.3,156.2,58.5,156.2,57.9z"/>
							<path class="st21" d="M163.7,51.4c-0.7-0.5-1.6-1.2-1.9-1.3c-0.4-0.1-4.1-0.3-4.1-0.3l-11.5,19.5l13.5-8.5l16,4.4
								c0,0-7.3-8.3-7.8-8.6C167.4,56.5,164.4,51.9,163.7,51.4z"/>
							<polygon class="st23" points="180.3,40 163.5,40 157.7,49.8 175.7,65.3 170.5,51.6 							"/>
							<path class="st24" d="M153.7,28.4c0,0-1.4,8.8-1.3,9.2c0.1,0.4,5.3,12.2,5.3,12.2l22.6-9.9L163.5,40L153.7,28.4z"/>
							<polygon class="st25" points="153.7,28.4 148.5,42.1 132.6,46.5 157.7,49.8 							"/>
						</g>
					</g>
				</g>
				<g>
					<g>
						<g>
							<path class="st21" d="M276.6,39.3c0.3-0.5,0.9-0.8,1.6-0.8h15.9l9.4-11c0.4-0.5,1-0.7,1.7-0.6c0.6,0.1,1.2,0.5,1.4,1l4.9,13
								l15.1,4.2c0.6,0.2,1.1,0.6,1.2,1.2c0.1,0.6-0.2,1.1-0.7,1.4l-12.9,8v13.6c0,0.6-0.4,1.1-1,1.3c-0.2,0.1-0.4,0.1-0.5,0.1
								c-0.4,0.1-0.9,0-1.3-0.3l-12.8-8l-15.1,4.2c-0.6,0.2-1.3,0-1.8-0.4s-0.6-1-0.4-1.5l5-12.9l-9.3-11
								C276.4,40.4,276.3,39.8,276.6,39.3z"/>
							<path class="st21" d="M312.9,73c-1.1,0.1-2.3-0.1-3.2-0.7L297.9,65l-13.8,3.8c-0.2,0.1-0.5,0.1-0.7,0.1l0,0
								c-1.4,0.2-2.8-0.2-3.7-1.1c-1.2-1-1.6-2.5-1.1-3.8l4.5-11.8l-8.5-10.1c-1-1.2-1.1-2.7-0.4-3.9s2.2-2,3.9-2h14.5l8.6-10.1
								c1-1.1,2.6-1.7,4.2-1.5s3,1.2,3.5,2.6l4.4,11.9l13.8,3.9c1.6,0.4,2.7,1.6,3,3s-0.4,2.8-1.8,3.6l-11.8,7.3v12.5
								c0,1.4-0.9,2.7-2.4,3.3C313.8,72.9,313.4,73,312.9,73L312.9,73z M324,46.8l-14.7-4.1L304.5,30l-9.1,10.7h-15.5l9.1,10.8
								l-4.8,12.6l14.7-4.1l12.5,7.8V54.5L324,46.8L324,46.8z"/>
						</g>
						<path class="st22" d="M276.6,39.3c0.3-0.5,0.9-0.8,1.6-0.8h15.9l9.4-11c0.4-0.5,1-0.7,1.7-0.6c0.6,0.1,1.2,0.5,1.4,1l4.9,13
							l15.1,4.2c0.6,0.2,1.1,0.6,1.2,1.2c0.1,0.6-0.2,1.1-0.7,1.4l-12.9,8v13.6c0,0.6-0.4,1.1-1,1.3c-0.2,0.1-0.4,0.1-0.5,0.1
							c-0.4,0.1-0.9,0-1.3-0.3l-12.8-8l-15.1,4.2c-0.6,0.2-1.3,0-1.8-0.4s-0.6-1-0.4-1.5l5-12.9l-9.3-11
							C276.4,40.4,276.3,39.8,276.6,39.3z"/>
						<g>
							<path class="st23" d="M302.3,57.9c0-0.6-1.5-8.1-1.5-8.1l5-3.7c0,0,6.2,0.4,6.6,0.4c0.4-0.1,13.5,0,13.5,0L312.3,55v14.4
								C312.3,69.3,302.3,58.5,302.3,57.9z"/>
							<path class="st21" d="M294.8,51.4c0.7-0.5,1.6-1.2,1.9-1.3c0.4-0.1,4.1-0.3,4.1-0.3l11.5,19.5l-13.5-8.5l-16,4.4
								c0,0,7.3-8.3,7.8-8.6C291.1,56.5,294.1,51.9,294.8,51.4z"/>
							<polygon class="st23" points="278.2,40 294.9,40 300.8,49.8 282.8,65.3 288,51.6 							"/>
							<path class="st24" d="M304.8,28.4c0,0,1.4,8.8,1.3,9.2c-0.1,0.4-5.3,12.2-5.3,12.2L278.2,40H295L304.8,28.4z"/>
							<polygon class="st25" points="304.8,28.4 309.9,42.1 325.9,46.5 300.8,49.8 							"/>
						</g>
					</g>
				</g>
			</g>
		</g>
	</g>
</g>
</svg>
